<svg xmlns="http://www.w3.org/2000/svg" xmlns:xlink="http://www.w3.org/1999/xlink" xmlns:inkscape="http://www.inkscape.org/namespaces/inkscape" version="1.1" width="1728" height="2592" viewBox="0 0 1728 2592">
<g inkscape:groupmode="layer" inkscape:label="Layer 1">
<path transform="matrix(1,0,0,-1,0,2592)" d="M882.6208 2125.3607C882.3827 2125.3607 882.1894 2125.3885 882.013 2125.4483 881.6734 2125.5638 881.4073 2125.806 881.1485 2126.04 881.0493 2126.1307 880.9483 2126.2222 880.8449 2126.304L880.5302 2126.5504 880.8576 2126.7803C880.9693 2126.858 881.0779 2126.9532 881.1876 2127.0479 881.4702 2127.2938 881.7622 2127.547 882.1293 2127.5985 883.1336 2127.7396 884.1464 2127.8382 885.1581 2127.9368 886.784 2128.0946 888.4655 2128.2586 890.0685 2128.6077 900.085 2130.7847 908.6712 2136.3858 916.3191 2145.7322 925.1597 2156.5362 931.0428 2169.6392 934.3046 2185.792 939.4053 2211.0447 937.8896 2235.308 929.8003 2257.9095 924.7439 2272.0408 917.5731 2282.7286 907.8755 2290.583 899.9572 2296.998 890.9926 2300.2513 881.2321 2300.2513L880.9622 2300.25C875.4313 2300.2174 869.8983 2300.2078 864.3685 2300.2078L839.5509 2300.226C839.1274 2300.226 838.7036 2300.2027 838.2132 2300.1759L837.7053 2300.1495V2128.669C837.7053 2125.5206 837.5828 2125.3978 834.414 2125.3966L829.7235 2125.391C828.0142 2125.391 826.304 2125.3978 824.5959 2125.429 824.1883 2125.437 823.8246 2125.66 823.4739 2125.8773 823.3319 2125.9637 823.1907 2126.051 823.0493 2126.1207L822.6448 2126.317 822.9847 2126.6116C823.0995 2126.7103 823.2089 2126.8248 823.3186 2126.9393 823.593 2127.2247 823.8767 2127.5206 824.2549 2127.6392 826.7391 2128.4188 827.4186 2129.3345 827.4186 2131.9027 827.4257 2186.5924 827.4246 2241.2833 827.4186 2295.973 827.4186 2298.6644 826.9498 2299.264 824.0786 2300.2464 823.7259 2300.3668 823.4807 2300.6697 823.2432 2300.961 823.1511 2301.0762 823.0581 2301.1903 822.9594 2301.2894L822.7003 2301.5494 823.0096 2301.7474C823.1275 2301.8228 823.242 2301.9088 823.3571 2301.9937 823.6497 2302.2105 823.9518 2302.4344 824.315 2302.532 824.5176 2302.5865 824.7419 2302.6129 825.0191 2302.6129 825.1778 2302.6129 825.8043 2302.5794 825.9534 2302.5794H826.414C831.5963 2302.5794 836.7783 2302.5589 841.9589 2302.5404 847.1404 2302.5198 852.321 2302.5 857.503 2302.5 865.5661 2302.5 872.1904 2302.5489 878.3478 2302.6549L879.5296 2302.6646C897.8233 2302.6646 913.0141 2295.5438 925.9719 2280.8939 937.5704 2267.783 945.021 2251.4534 948.1192 2232.3592 951.948 2208.7569 948.7562 2186.4095 938.634 2165.9378 930.8625 2150.2174 920.4693 2139.0306 906.8596 2131.7369 899.4844 2127.7852 891.6185 2125.657 883.4808 2125.411L883.1217 2125.3873C882.9536 2125.3734 882.7849 2125.3607 882.6208 2125.3607"/>
<path transform="matrix(1,0,0,-1,0,2592)" d="M1246.271 2124.1165C1234.248 2124.2803 1223.1253 2129.49 1214.1049 2139.1793 1201.5924 2152.624 1195.981 2169.39 1197.4252 2189.013 1198.6296 2205.348 1204.8952 2219.0716 1216.0519 2229.8038 1224.8289 2238.2493 1236.1425 2242.9005 1247.9102 2242.9005 1260.7909 2242.9005 1272.836 2237.475 1281.8289 2227.6256 1293.9625 2214.334 1299.5223 2197.8658 1298.3494 2178.6783 1297.5471 2165.5443 1293.0797 2153.564 1285.073 2143.0704 1275.9094 2131.0599 1261.7683 2124.151 1246.2752 2124.1165ZM1247.963 2240.5916V2240.5916C1241.9912 2240.5916 1236.1243 2238.6639 1230.9973 2235.017 1224.4652 2230.3685 1219.3883 2223.7379 1215.9088 2215.3109 1208.1513 2196.519 1207.4978 2176.7869 1213.9699 2156.6593 1216.894 2147.569 1221.5344 2140.1439 1227.7614 2134.5867 1233.9116 2129.099 1240.5368 2126.317 1247.456 2126.317 1250.9291 2126.317 1254.5337 2127.0228 1258.168 2128.4139 1265.4791 2131.213 1271.4647 2136.7003 1276.4688 2145.1922 1282.7459 2155.8409 1285.8875 2168.2667 1286.0725 2183.1773L1286.0748 2183.4346 1286.0905 2183.437C1286.0684 2185.1737 1285.049 2197.0933 1283.7575 2203.1173 1281.1912 2215.081 1276.1371 2224.5623 1268.3069 2232.1046 1262.6249 2237.5777 1255.4008 2240.5916 1247.963 2240.5916"/>
<path transform="matrix(1,0,0,-1,0,2592)" d="M1017.051 2124.111C1004.6554 2124.111 993.5853 2129.167 984.1462 2139.1373 971.6403 2152.3485 965.9985 2169.106 967.3744 2188.9468 968.2812 2202.0343 972.6744 2213.7037 980.4336 2223.6304 989.9388 2235.7908 1001.9245 2242.2518 1016.0597 2242.835 1016.7435 2242.8629 1017.4235 2242.8773 1018.0973 2242.8773 1030.9048 2242.8773 1042.1841 2237.7987 1051.6207 2227.7828 1062.4295 2216.3153 1067.971 2202.2557 1068.556 2184.8 1068.5906 2183.8419 1068.4434 2183.267 1068.0673 2182.8787 1067.6972 2182.4947 1067.1239 2182.3238 1066.2092 2182.3238 1056.3438 2182.3499 1046.5025 2182.3546 1036.6611 2182.3609 1027.4655 2182.3656 1018.2699 2182.3707 1009.076 2182.393 1008.5695 2182.3939 1008.1046 2182.6763 1007.6545 2182.9488 1007.4654 2183.0645 1007.2763 2183.1795 1007.087 2183.27L1006.4735 2183.5596 1007.1034 2183.8128C1007.3024 2183.8924 1007.5034 2183.9957 1007.7024 2184.0985 1008.1695 2184.3377 1008.65 2184.5853 1009.1648 2184.5863 1020.189 2184.6163 1031.2149 2184.6214 1042.2366 2184.6214L1058.61 2184.6204C1058.3989 2186.2574 1058.2177 2187.8714 1058.0391 2189.4676 1057.6209 2193.2034 1057.2249 2196.733 1056.4846 2200.236 1054.0307 2211.8424 1049.2778 2221.3758 1041.9588 2229.3807 1035.3739 2236.5806 1026.7937 2240.547 1017.7971 2240.547 1008.8612 2240.547 1000.3371 2236.6224 993.7967 2229.4974 984.8585 2219.7628 979.6632 2207.7259 977.9134 2192.6998 976.5275 2180.7806 977.7226 2169.2432 981.4654 2158.4066 984.3454 2150.0665 988.4548 2143.1546 994.026 2137.2784 1000.796 2130.139 1009.2997 2126.3653 1018.6197 2126.3653 1023.0327 2126.3653 1027.5503 2127.22 1032.0474 2128.9066 1044.085 2133.4185 1053.1193 2141.8895 1059.664 2154.8038 1059.779 2155.0264 1059.8734 2155.26 1059.9699 2155.4927 1060.151 2155.9366 1060.34 2156.394 1060.6419 2156.7813 1060.9274 2157.1483 1061.3336 2157.3914 1061.7279 2157.6278 1061.8866 2157.7225 1062.0454 2157.818 1062.1942 2157.921L1062.6466 2158.2344 1062.6588 2157.6844C1062.6647 2157.511 1062.6895 2157.3272 1062.7155 2157.1434 1062.7756 2156.6849 1062.8399 2156.211 1062.6367 2155.822 1062.283 2155.1519 1061.9368 2154.478 1061.5888 2153.8043 1060.3665 2151.4283 1059.1013 2148.9705 1057.5867 2146.7247 1049.5797 2134.838 1039.2094 2127.562 1026.7656 2125.0975 1023.4653 2124.4434 1020.1966 2124.111 1017.051 2124.111"/>
<path transform="matrix(1,0,0,-1,0,2592)" d="M1135.3147 2124.1265C1122.8125 2124.1265 1111.614 2129.2674 1102.0277 2139.4046 1091.0585 2151.0086 1085.5613 2165.4525 1085.2257 2183.5638 1085.525 2200.7083 1090.982 2215.2867 1101.4404 2226.9017 1110.3307 2236.7738 1121.4306 2242.167 1134.4337 2242.9324L1134.7234 2242.96C1134.8864 2242.978 1135.0491 2242.995 1135.206 2242.995 1135.4094 2242.995 1135.578 2242.967 1135.7269 2242.9075 1136.0667 2242.7725 1136.3406 2242.5333 1136.6062 2242.303 1136.7108 2242.2115 1136.8151 2242.12 1136.9237 2242.0377L1137.2272 2241.8033 1136.9237 2241.568C1136.8171 2241.4837 1136.7108 2241.3807 1136.6039 2241.2794 1136.3284 2241.013 1136.0404 2240.736 1135.671 2240.6805 1134.9907 2240.5753 1134.303 2240.526 1133.6154 2240.4776 1132.8693 2240.4259 1132.1226 2240.373 1131.3887 2240.245 1122.7382 2238.7484 1115.6502 2233.982 1109.717 2225.678 1103.5426 2217.034 1099.8355 2206.631 1098.3853 2193.8726 1097.1488 2183.0045 1097.8126 2172.432 1100.3604 2162.449 1102.9612 2152.255 1107.0986 2144.084 1113.0075 2137.4678 1119.5986 2130.0889 1127.4766 2126.3472 1136.4212 2126.3472 1139.6713 2126.3472 1143.1162 2126.843 1146.6641 2127.8189 1160.1921 2131.5455 1170.3173 2140.2554 1177.6178 2154.4473 1177.7387 2154.6837 1177.8455 2154.9305 1177.9517 2155.177 1178.159 2155.659 1178.3744 2156.1556 1178.7001 2156.5836 1178.9799 2156.954 1179.3903 2157.1964 1179.786 2157.4298 1179.9472 2157.5262 1180.11 2157.622 1180.2606 2157.7264L1180.7133 2158.038 1180.7254 2157.4896C1180.7311 2157.3175 1180.7575 2157.132 1180.7821 2156.9483 1180.8462 2156.4837 1180.9129 2156.0037 1180.6951 2155.626 1180.0534 2154.5267 1179.434 2153.4114 1178.8129 2152.2969 1177.133 2149.2823 1175.3958 2146.1658 1173.2916 2143.386 1165.7477 2133.43 1156.2041 2127.272 1144.9225 2125.082 1141.6561 2124.4488 1138.4243 2124.1265 1135.3147 2124.1265"/>
<path transform="matrix(1,0,0,-1,0,2592)" d="M1327.3197 2125.3966C1324.6447 2125.3966 1321.9696 2125.4093 1319.2971 2125.4346 1318.8926 2125.44 1318.5485 2125.7098 1318.2146 2125.9708 1318.0844 2126.0733 1317.9539 2126.1763 1317.8228 2126.2567L1317.461 2126.4786 1317.7946 2126.7425C1317.903 2126.8277 1318.0079 2126.9273 1318.1126 2127.0255 1318.3742 2127.27 1318.6431 2127.5223 1318.9893 2127.6334 1321.5557 2128.452 1322.2996 2129.4354 1322.3018 2132.017 1322.31 2165.434 1322.31 2198.8489 1322.2996 2232.2645 1322.2979 2234.3243 1321.926 2234.6905 1320.8822 2234.6905 1320.4916 2234.6905 1320.0169 2234.629 1319.4395 2234.522L1319.2206 2234.5037C1318.9329 2234.5037 1318.6497 2234.5946 1318.3759 2234.6844 1318.2393 2234.729 1318.1026 2234.7728 1317.9694 2234.803L1317.5671 2234.8934 1317.7803 2235.2467C1317.8609 2235.378 1317.9291 2235.529 1318 2235.68 1318.1786 2236.068 1318.3637 2236.469 1318.7238 2236.6566 1321.8637 2238.3045 1325.033 2239.9024 1328.2007 2241.5003L1330.2465 2242.5313C1330.683 2242.7528 1331.0427 2242.86 1331.3463 2242.86 1331.6284 2242.86 1331.8615 2242.768 1332.0422 2242.587 1332.4164 2242.2105 1332.4649 2241.5157 1332.4609 2240.8863 1332.4467 2237.3453 1332.4528 2233.8035 1332.4592 2230.2615L1332.4609 2228.1358C1332.4609 2228.0125 1332.477 2227.891 1332.497 2227.7296 1332.6919 2227.8675 1332.8391 2227.969 1332.9675 2228.0914 1341.7149 2236.5164 1352.67 2241.266 1366.4557 2242.612 1367.9583 2242.7576 1369.4924 2242.804 1370.9772 2242.849 1371.7597 2242.8724 1372.5418 2242.8966 1373.324 2242.9349L1373.5313 2242.9395C1374.1852 2242.9395 1374.6574 2242.7779 1374.9793 2242.445 1375.3091 2242.104 1375.458 2241.6072 1375.4341 2240.927 1375.4118 2240.2418 1375.416 2239.5535 1375.4218 2238.867 1375.4282 2238.1138 1375.4341 2237.361 1375.4019 2236.6097 1375.3659 2235.6717 1374.9537 2235.1119 1374.3014 2235.1119 1374.0364 2235.1119 1373.7427 2235.2113 1373.4286 2235.4085 1369.6554 2237.766 1365.7759 2238.914 1361.5679 2238.914 1357.1555 2238.914 1352.4749 2237.666 1346.8377 2234.989 1341.5519 2232.477 1337.0789 2229.223 1333.5409 2225.3165 1332.9315 2224.6453 1332.5051 2223.6043 1332.5029 2222.7857 1332.4445 2192.5753 1332.4528 2162.3636 1332.4609 2132.1519 1332.4609 2129.3778 1333.0925 2128.53 1335.8358 2127.621 1336.1814 2127.5067 1336.4314 2127.2298 1336.6723 2126.9625 1336.7687 2126.8558 1336.8657 2126.7493 1336.966 2126.6566L1337.258 2126.3934 1336.9241 2126.186C1336.8073 2126.1124 1336.6906 2126.0203 1336.5737 2125.9273 1336.2702 2125.6864 1335.9544 2125.437 1335.5824 2125.434 1332.8286 2125.4097 1330.0736 2125.3966 1327.3197 2125.3966"/>
<path transform="matrix(1,0,0,-1,0,2592)" d="M1175.2509 2205.9219C1174.432 2205.9219 1174.2614 2206.8944 1174.1445 2207.9776 1173.475 2214.2574 1171.0953 2220.0633 1166.8757 2225.7259 1163.2276 2230.6236 1158.4284 2234.463 1152.612 2237.1387L1152.2699 2237.2843C1151.9382 2237.4168 1151.5978 2237.5545 1151.3222 2237.8009 1151.023 2238.0726 1150.7734 2238.6627 1150.898 2239.0758 1150.9849 2239.3817 1151.3024 2239.5557 1151.5558 2239.6954 1151.6323 2239.738 1151.7046 2239.777 1151.7608 2239.8165L1151.8914 2239.9095C1151.8914 2239.9095 1152.9074 2239.5113 1153.1047 2239.4268 1165.4617 2234.09 1174.519 2224.8304 1180.7977 2211.1185 1181.0676 2210.5299 1180.7212 2209.4219 1180.2671 2209.023 1179.4423 2208.3 1178.5051 2207.7 1177.5963 2207.1187L1176.8676 2206.6483C1176.2019 2206.2127 1175.673 2205.9219 1175.2509 2205.9219"/>
<path transform="matrix(1,0,0,-1,0,2592)" d="M1151.9312 2239.5745C1152.3825 2239.3953 1152.6885 2239.2833 1152.9879 2239.154 1166.0117 2233.5284 1174.7251 2223.6702 1180.5282 2210.9945 1180.7294 2210.5538 1180.4588 2209.5853 1180.0722 2209.246 1179.0488 2208.3487 1177.8508 2207.6483 1176.7042 2206.896 1175.0261 2205.7952 1174.6596 2205.9464 1174.4396 2208.0084 1173.7273 2214.6878 1171.0868 2220.5714 1167.1138 2225.9027 1163.3278 2230.9844 1158.4823 2234.7645 1152.7365 2237.4093 1152.3217 2237.5994 1151.8472 2237.7286 1151.5226 2238.0216 1151.2885 2238.233 1151.1 2238.715 1151.1812 2238.9913 1151.2593 2239.258 1151.7094 2239.4158 1151.9312 2239.5745"/>
<path transform="matrix(1,0,0,-1,0,2592)" d="M568.3156 2006.3997C567.932 2006.3997 567.6208 2006.4447 567.3376 2006.5402 566.7902 2006.7265 566.3611 2007.1165 565.9452 2007.4944 565.7848 2007.6398 565.6232 2007.7875 565.456 2007.9181L564.9494 2008.315 565.4772 2008.6858C565.6569 2008.8102 565.8321 2008.9644 566.0084 2009.1166 566.4631 2009.5112 566.9331 2009.9194 567.5238 2010.0025 569.1416 2010.2306 570.7723 2010.3894 572.4011 2010.5476 575.0195 2010.8021 577.7266 2011.066 580.3078 2011.6276 596.4355 2015.1334 610.2601 2024.1527 622.5744 2039.2017 636.8088 2056.597 646.2814 2077.6959 651.5345 2103.7034 659.7468 2144.3636 657.307 2183.4305 644.2818 2219.823 636.1404 2242.5765 624.5938 2259.7855 608.9791 2272.4315 596.2294 2282.7606 581.7957 2287.9989 566.0796 2287.9989L565.6459 2287.9976C556.7397 2287.9437 547.8307 2287.9293 538.9265 2287.9293L498.966 2287.9586C498.2839 2287.9586 497.6028 2287.921 496.8122 2287.8773L495.9944 2287.8353V2011.727C495.9944 2006.657 495.7968 2006.4591 490.695 2006.4574L483.1427 2006.4481C480.3902 2006.4481 477.6375 2006.4591 474.8859 2006.5093 474.2303 2006.5225 473.6443 2006.8818 473.0791 2007.2316 472.8509 2007.3711 472.6242 2007.5119 472.396 2007.6233L471.7451 2007.9391 472.2922 2008.414C472.4765 2008.5728 472.6534 2008.7572 472.8297 2008.9414 473.2719 2009.4015 473.7283 2009.8775 474.3371 2010.0682 478.3368 2011.3234 479.4316 2012.7988 479.4316 2016.934 479.4426 2104.9927 479.4409 2193.0523 479.4316 2281.1109 479.4316 2285.4439 478.6767 2286.409 474.054 2287.9906 473.4853 2288.1849 473.0907 2288.672 472.7083 2289.1417 472.5595 2289.3267 472.4107 2289.5113 472.2517 2289.67L471.8339 2290.0894 472.333 2290.4083C472.5221 2290.5296 472.7066 2290.6673 472.8912 2290.805 473.3629 2291.153 473.8496 2291.5142 474.4346 2291.6715 474.7598 2291.7589 475.1212 2291.801 475.5679 2291.801 475.8236 2291.801 476.8325 2291.7474 477.0723 2291.7474H477.8138C486.1576 2291.7474 494.5014 2291.715 502.844 2291.6844 511.1861 2291.6514 519.5282 2291.6195 527.872 2291.6195 540.8555 2291.6195 551.5211 2291.6988 561.4353 2291.869L563.3379 2291.885C592.7936 2291.885 617.2534 2280.4193 638.1173 2256.83 656.7922 2235.7208 668.789 2209.4276 673.7777 2178.6829 679.9422 2140.6798 674.8027 2104.6978 658.5052 2071.735 645.9917 2046.4234 629.2568 2028.4113 607.3441 2016.667 595.4686 2010.3035 582.8029 2006.8773 569.7003 2006.4801L569.1217 2006.4436C568.8516 2006.4207 568.5795 2006.3997 568.3156 2006.3997"/>
<path transform="matrix(1,0,0,-1,0,2592)" d="M841.2001 2314.84C840.2683 2314.84 839.3366 2314.844 838.4049 2314.8516 838.2963 2314.8529 838.211 2314.9359 838.1293 2315.0157 838.0996 2315.0443 838.0698 2315.0736 838.04 2315.0963L837.9581 2315.1588 838.0276 2315.235C838.0528 2315.2628 838.0766 2315.2947 838.1001 2315.3262 838.1597 2315.407 838.2274 2315.4986 838.326 2315.536 839.3698 2315.9327 839.4429 2316.0362 839.4429 2317.121L839.444 2370.3787 839.3896 2370.4305 838.9157 2370.443C837.9845 2370.4576 837.0527 2370.4713 836.1227 2370.4713 832.9997 2370.4713 829.6512 2370.3314 826.3193 2369.317 825.558 2369.086 824.9848 2368.842 824.5154 2368.5494 824.2642 2368.3936 824.0734 2368.141 823.8702 2367.8746 823.7721 2367.7457 823.6746 2367.6173 823.5694 2367.4993 823.5077 2367.4298 823.4371 2367.3677 823.3651 2367.307L823.1958 2367.156 823.134 2367.2388C823.1114 2367.269 823.0822 2367.2994 823.053 2367.33 822.9728 2367.4127 822.8911 2367.498 822.8889 2367.6077 822.873 2368.5313 822.8614 2369.6243 822.8928 2370.733 822.8982 2370.923 823.159 2371.1148 823.3226 2371.1905 823.3852 2371.2198 823.4575 2371.2335 823.5507 2371.2335 823.6029 2371.2335 823.657 2371.229 823.7109 2371.225 823.7599 2371.2208 823.809 2371.2169 823.8557 2371.2169L858.2624 2371.2174C859.2619 2371.2174 859.301 2371.177 859.301 2370.1514L859.303 2369.5347C859.3058 2368.9483 859.3087 2368.3616 859.2888 2367.7755 859.2837 2367.634 859.1978 2367.5103 859.1148 2367.39 859.081 2367.341 859.0479 2367.2933 859.0209 2367.2442L858.9532 2367.1209 858.763 2367.3609C858.6938 2367.4503 858.6264 2367.54 858.5467 2367.6182 858.4364 2367.7274 858.3301 2367.8443 858.2233 2367.961 857.9769 2368.232 857.7224 2368.5115 857.4214 2368.6756 855.9763 2369.4608 854.392 2369.7615 852.62 2370.047 850.3098 2370.4195 847.9664 2370.4703 845.7772 2370.4703 845.2466 2370.4703 842.8547 2370.4586 842.8547 2370.4586 842.8306 2370.4586 842.7997 2370.4493 842.7523 2370.4356L842.7027 2370.4224 842.7033 2317.132C842.7033 2316.0589 842.8167 2315.8956 843.8085 2315.5404 843.9089 2315.505 843.982 2315.4256 844.052 2315.3485 844.0795 2315.318 844.1067 2315.2884 844.1354 2315.262L844.2213 2315.1839 844.1271 2315.1163C844.0917 2315.0904 844.0571 2315.058 844.0223 2315.0262 843.9287 2314.9403 843.8323 2314.8516 843.7139 2314.8507 842.8762 2314.8436 842.0377 2314.84 841.2001 2314.84"/>
<path transform="matrix(1,0,0,-1,0,2592)" d="M863.9297 2314.8323C863.6434 2314.8323 863.3563 2314.8358 863.0702 2314.8482 862.9418 2314.8546 862.8316 2314.9359 862.7253 2315.0147 862.683 2315.0455 862.6416 2315.0765 862.5991 2315.1016L862.4823 2315.1705 862.5875 2315.256C862.6218 2315.2838 862.6552 2315.3162 862.6878 2315.3485 862.7695 2315.428 862.8542 2315.51 862.9651 2315.546 863.814 2315.8179 864.0091 2316.0777 864.0091 2316.9366 864.0102 2334.0264 864.0102 2351.117 864.0085 2368.2069 864.0085 2368.888 863.9178 2368.9913 863.6085 2368.9913 863.4951 2368.9913 863.3458 2368.9732 863.1252 2368.9337L863.0549 2368.927C862.9622 2368.927 862.8707 2368.9564 862.7825 2368.9844 862.7386 2368.9984 862.6944 2369.0123 862.651 2369.0223L862.5226 2369.0509 862.5909 2369.163C862.6161 2369.2047 862.6377 2369.253 862.6592 2369.3004 862.7159 2369.4229 862.7737 2369.55 862.888 2369.609 863.782 2370.0758 864.6826 2370.529 865.584 2370.9827L866.6127 2371.5023C866.7261 2371.5596 866.823 2371.5877 866.9095 2371.5877 867.0594 2371.5877 867.2457 2371.5013 867.2732 2371.0924 867.2825 2370.9578 867.28 2370.8218 867.2788 2370.6856L867.2783 2338.0723C867.2794 2331.1539 867.28 2324.2357 867.2695 2317.3177 867.2678 2316.3939 867.3514 2315.6754 868.422 2315.527 868.5289 2315.5123 868.5814 2315.3992 868.6375 2315.279 868.6562 2315.2396 868.6743 2315.1998 868.6942 2315.1676L868.75 2315.0765 868.6519 2315.0328C868.61 2315.014 868.5692 2314.99 868.5278 2314.9669 868.4232 2314.9078 868.3157 2314.8472 868.1961 2314.8453 867.5855 2314.8372 866.9752 2314.8348 866.3652 2314.8348Z"/>
<path transform="matrix(1,0,0,-1,0,2592)" d="M912.083 2314.4185C908.1417 2314.4185 904.6037 2316.0594 901.5684 2319.2955 897.6144 2323.5128 895.8478 2328.8333 896.3178 2335.1107 896.7076 2340.3116 898.7097 2344.6759 902.2674 2348.082 905.0562 2350.7518 908.6437 2352.2225 912.3684 2352.2225 916.4755 2352.2225 920.3227 2350.4874 923.2027 2347.3367 926.5842 2343.6363 928.3181 2339.192 928.5026 2333.7486 928.5103 2333.527 928.4973 2333.2803 928.3479 2333.1256 928.2317 2333.0059 928.0466 2332.9498 927.7654 2332.9498 924.2274 2332.9603 920.6952 2332.9622 917.1632 2332.9622L909.5876 2332.9608 909.3875 2332.9547C909.3336 2332.9547 909.2537 2332.958 909.1809 2332.9896 909.0706 2333.0367 908.9099 2333.1839 908.9093 2333.3265 908.907 2333.4588 909.0734 2333.6229 909.2035 2333.6534 909.3209 2333.6802 909.4416 2333.6837 909.534 2333.6837L909.7832 2333.6807 925.3086 2333.6815C925.259 2334.1173 925.2159 2334.5465 925.1731 2334.9703 925.0733 2335.9664 924.978 2336.9075 924.8128 2337.8475 924.1007 2341.8846 922.5408 2345.1773 920.0455 2347.914 917.9527 2350.2103 915.2203 2351.4747 912.3545 2351.4747 909.4703 2351.4747 906.7306 2350.1968 904.638 2347.8768 901.8289 2344.762 900.2001 2340.9422 899.6587 2336.2 899.225 2332.405 899.6068 2328.755 900.7926 2325.3509 902.035 2321.7833 903.8582 2319.13 906.3663 2317.2396 908.2222 2315.84 910.2807 2315.1309 912.4846 2315.1309 913.8694 2315.1309 915.3465 2315.4105 916.8749 2315.9625 920.7077 2317.347 923.5928 2320.0552 925.6949 2324.2423 925.7355 2324.3228 925.772 2324.4053 925.8089 2324.488 925.882 2324.6534 925.9583 2324.8236 926.0623 2324.9769 926.1289 2325.0736 926.2468 2325.114 926.3605 2325.1524 926.4039 2325.167 926.4464 2325.1817 926.4849 2325.1993L926.5952 2325.2513 926.6176 2325.1309C926.625 2325.0882 926.6391 2325.0433 926.653 2324.9976 926.6899 2324.877 926.7279 2324.7513 926.6783 2324.6434 926.3823 2324.0064 926.0799 2323.3536 925.7213 2322.7435 923.1976 2318.4456 919.9409 2315.8709 915.7649 2314.8709 914.5111 2314.5709 913.2721 2314.4185 912.083 2314.4185"/>
<path transform="matrix(1,0,0,-1,0,2592)" d="M888.7 2314.5299C888.3077 2314.5299 887.9043 2314.6082 887.5015 2314.764 886.3461 2315.2098 885.649 2316.11 885.4863 2317.3685 885.4495 2317.65 885.4517 2317.9378 885.4529 2318.2156 885.4529 2318.2156 885.4517 2332.4488 885.4529 2339.4844 885.4529 2342.3958 884.8434 2344.8236 883.5905 2346.904 882.0366 2349.484 880.0767 2350.945 877.6001 2351.372 877.0932 2351.4598 876.5756 2351.5035 876.0611 2351.5035 874.5333 2351.5035 872.9921 2351.1309 871.3474 2350.3656 871.312 2350.3485 871.2774 2350.328 871.2431 2350.3077 871.1617 2350.2586 871.0778 2350.2086 870.9792 2350.1998 870.9358 2350.1959 870.8916 2350.1937 870.8471 2350.1937 870.7467 2350.1937 870.6453 2350.2025 870.5435 2350.212L870.1926 2350.2359 870.3 2350.3765C870.3334 2350.4217 870.3643 2350.4718 870.3958 2350.522 870.4712 2350.645 870.5494 2350.7733 870.6745 2350.8385 872.4399 2351.7633 874.2912 2352.2318 876.1774 2352.2318 876.3001 2352.2318 876.422 2352.23 876.5459 2352.226 880.3621 2352.1046 883.5012 2350.5948 885.8738 2347.7396 887.6767 2345.5714 888.6107 2343.1063 888.6523 2340.4127 888.6937 2337.7103 888.6844 2334.9625 888.6756 2332.3048 888.6716 2331.188 888.6679 2330.071 888.6674 2328.954L888.6827 2328.8597 888.6832 2317.1204C888.6838 2316.2115 888.9851 2315.7503 889.5781 2315.7503 889.8211 2315.7503 890.1147 2315.8243 890.4526 2315.9703 890.4917 2315.987 890.5346 2315.9954 890.5847 2315.9954 890.6564 2315.9954 890.7307 2315.9779 890.8024 2315.9615 890.8475 2315.951 890.8923 2315.9398 890.9357 2315.9354L891.0592 2315.9205 891.0113 2315.805C890.9938 2315.7635 890.9804 2315.718 890.9671 2315.6719 890.9325 2315.5535 890.8971 2315.432 890.8041 2315.3543 890.1516 2314.8074 889.4432 2314.5299 888.7 2314.5299"/>
<path transform="matrix(1,0,0,-1,0,2592)" d="M1018.3827 1916.3959C1004.5667 1916.5833 993.3418 1921.5187 984.0662 1931.4867 971.5541 1944.9279 965.9401 1961.6945 967.3826 1981.3178 968.5831 1997.6499 974.8502 2011.375 986.0068 2022.1089 994.7843 2030.5565 1006.0999 2035.2107 1017.8677 2035.2107 1030.7477 2035.2107 1042.7919 2029.786 1051.7842 2019.937 1063.9199 2006.6465 1069.4789 1990.18 1068.3068 1970.9921 1067.4816 1957.4987 1063.0029 1945.5256 1054.9916 1935.4088 1045.2555 1923.1155 1032.9423 1916.7174 1018.3927 1916.3959H1018.3884ZM1017.8416 2032.9135V2032.9135C1013.4471 2032.9135 1009.1789 2031.894 1005.1605 2029.883 998.6275 2026.614 993.2998 2021.2863 988.8687 2013.5974 982.8249 2003.1046 979.7899 1990.9684 979.5889 1976.4933 979.6853 1966.2796 980.9527 1957.8488 983.5753 1949.9622 986.8294 1940.1732 991.4352 1932.6393 997.6586 1926.929 1003.5473 1921.523 1010.4925 1918.6646 1017.741 1918.6646 1023.9457 1918.6646 1030.0765 1920.8129 1035.4686 1924.8775 1041.4939 1929.4172 1046.1161 1935.5652 1049.5996 1943.6709 1056.5348 1959.8097 1057.892 1977.394 1053.6327 1995.9324 1050.9069 2007.8067 1045.8505 2017.1511 1038.174 2024.4983 1032.5038 2029.9249 1025.2835 2032.9135 1017.8416 2032.9135"/>
<path transform="matrix(1,0,0,-1,0,2592)" d="M836.1828 1917.707 830.6892 1917.6996C828.724 1917.6996 826.7601 1917.707 824.796 1917.7373 824.3512 1917.7432 823.9408 1917.9609 823.5462 1918.17 823.3821 1918.2564 823.2194 1918.3428 823.0552 1918.4111L822.5864 1918.6084 822.9881 1918.9179C823.1224 1919.0231 823.2514 1919.1433 823.3809 1919.264 823.6939 1919.5518 824.0168 1919.8515 824.4249 1919.9799 826.5336 1920.6459 827.3421 1921.6857 827.4076 1923.8179 827.4226 1924.2802 827.4197 1924.7426 827.4169 1925.2072L827.4146 1953.3394C827.4132 1997.7265 827.4127 2042.1113 827.4314 2086.4974V2086.7269C827.4368 2089.6529 827.4407 2092.1805 823.7639 2092.6439 823.3319 2092.698 822.8619 2093.419 822.9104 2093.8184 822.9648 2094.2569 823.4949 2094.7227 823.8971 2094.8162 824.2466 2094.8973 824.5976 2094.9078 824.8657 2094.9078L825.7221 2094.8939 915.0148 2094.9012C917.8724 2094.9012 918.0133 2094.7606 918.0162 2091.8839L918.0204 2090.19C918.0272 2088.1356 918.0343 2086.0814 917.9813 2084.0267 917.9714 2083.6134 917.7471 2083.242 917.5317 2082.8829 917.4441 2082.7384 917.3565 2082.5946 917.2877 2082.4498L917.1014 2082.059 916.4778 2082.7254C916.2374 2082.9859 915.9973 2083.246 915.7428 2083.4913 915.3615 2083.8614 914.9967 2084.262 914.6313 2084.663 913.845 2085.5277 913.0317 2086.422 912.0688 2086.944 907.998 2089.145 903.1431 2090.4989 896.7895 2091.203 889.6524 2091.9935 883.8848 2092.3975 878.6404 2092.473 872.9926 2092.5545 867.3432 2092.5777 861.6954 2092.5777 857.893 2092.5777 854.0906 2092.5672 850.2883 2092.5562 846.5933 2092.5462 842.8966 2092.5364 839.2005 2092.5352 838.8706 2092.5352 838.542 2092.513 838.1398 2092.486L837.6953 2092.4586 837.6965 1925.1596C837.6965 1921.3838 837.6965 1921.3838 841.3115 1919.8794 841.6222 1919.751 841.8067 1919.4508 841.9836 1919.1594 842.0488 1919.0529 842.1148 1918.944 842.1868 1918.8496L842.3875 1918.5902 842.1092 1918.4176C842.0057 1918.3527 841.9042 1918.2722 841.8013 1918.1923 841.5286 1917.9791 841.2474 1917.7577 840.9042 1917.7432 840.117 1917.707 839.3272 1917.697 838.5378 1917.697Z"/>
<path transform="matrix(1,0,0,-1,0,2592)" d="M936.6934 1917.6953C934.698 1917.6953 932.7036 1917.7036 930.7089 1917.7356 930.2632 1917.7415 929.8542 1917.9646 929.4588 1918.1818 929.2978 1918.2705 929.1359 1918.3609 928.9738 1918.4315L928.5043 1918.6364 928.9154 1918.94C929.0531 1919.0429 929.1864 1919.1594 929.3199 1919.2763 929.6416 1919.5578 929.9744 1919.8491 930.386 1919.9799 932.4672 1920.6354 933.302 1921.7155 933.3635 1923.8278 933.3734 1924.1535 933.3717 1924.4793 933.3703 1924.8049L933.3717 2084.9989C933.3746 2085.3729 933.3785 2085.7474 933.3587 2086.119 933.2728 2087.6639 932.7801 2087.9659 931.9575 2087.9659 931.6942 2087.9659 931.3937 2087.9307 931.0516 2087.866 930.9288 2087.843 930.8035 2087.833 930.6768 2087.833 930.3316 2087.833 929.9837 2087.9085 929.6476 2087.9808 929.4537 2088.0218 929.2592 2088.0643 929.067 2088.0909L928.5202 2088.1636 928.8845 2088.579C929.0151 2088.7283 929.1359 2088.894 929.2575 2089.0596 929.5469 2089.4564 929.8466 2089.8643 930.2774 2090.0894 933.2391 2091.6427 936.2316 2093.1375 939.2224 2094.632L940.7707 2095.4066C941.5746 2095.8087 942.1597 2096.0572 942.6005 2096.0572 943.6351 2096.0572 943.6351 2094.7518 943.6363 2093.5997L943.6402 1925.1972C943.6402 1921.3617 943.6402 1921.3617 947.2173 1919.8834 947.5274 1919.755 947.7071 1919.4551 947.8823 1919.1654 947.9463 1919.0568 948.0095 1918.9483 948.0813 1918.8558L948.2751 1918.602 948.0053 1918.4275C947.9049 1918.3632 947.8063 1918.2827 947.7071 1918.2022 947.4386 1917.9826 947.1611 1917.7577 946.819 1917.7432 945.9995 1917.7036 945.1769 1917.6953 944.3531 1917.6953Z"/>
<path transform="matrix(1,0,0,-1,0,2592)" d="M1153.6155 1917.0153C1153.4783 1917.2463 1153.326 1917.4717 1153.173 1917.697 1152.8331 1918.1962 1152.4813 1918.7147 1152.2897 1919.2962 1148.0763 1932.158 1143.887 1945.0287 1139.6994 1957.8966L1136.3224 1968.2708 1135.94 1969.4075 1134.6412 1965.439C1132.996 1960.4169 1131.4208 1955.6099 1129.7897 1950.8207 1129.5744 1950.1997 1129.1143 1949.6829 1128.6692 1949.182 1128.4724 1948.9627 1128.2769 1948.7455 1128.1043 1948.5181L1127.5554 1947.7946 1127.5736 1948.7033C1127.5775 1948.9765 1127.5612 1949.2564 1127.5473 1949.5358 1127.5109 1950.1716 1127.4749 1950.8289 1127.6697 1951.4367 1128.6856 1954.6303 1129.7296 1957.8167 1130.7711 1961.0025 1131.9415 1964.5801 1133.1145 1968.1566 1134.2463 1971.7448 1134.5219 1972.6157 1134.5261 1973.7173 1134.2588 1974.5521 1131.0606 1984.4859 1127.8386 1994.4116 1124.6165 2004.3351 1122.1931 2011.7971 1119.7715 2019.2593 1117.3598 2026.7252 1116.3124 2029.9691 1114.6347 2031.6087 1111.9174 2032.0347 1111.553 2032.091 1111.3139 2032.437 1111.0825 2032.7686 1110.9963 2032.8936 1110.9115 2033.0186 1110.821 2033.119L1110.5858 2033.3823 1110.8875 2033.5674C1110.9882 2033.6315 1111.0907 2033.712 1111.1936 2033.7925 1111.4691 2034.0099 1111.7546 2034.2327 1112.0984 2034.2354 1114.8401 2034.2551 1117.5831 2034.2656 1120.3244 2034.2656 1123.2748 2034.2656 1126.2238 2034.253 1129.1743 2034.231 1129.5198 2034.2293 1129.8036 2033.9901 1130.0751 2033.7565 1130.1779 2033.6679 1130.2807 2033.5813 1130.3827 2033.513L1130.6565 2033.3302 1130.4454 2033.0745C1130.3688 2032.9824 1130.2963 2032.8755 1130.224 2032.7686 1130.0372 2032.487 1129.8399 2032.196 1129.5281 2032.0651 1126.946 2030.9868 1126.787 2030.6511 1127.6237 2028.0643L1157.7022 1935.487C1157.8008 1935.185 1157.9111 1934.8897 1158.0625 1934.4852L1158.078 1934.4413 1158.1809 1934.735C1158.4244 1935.4246 1158.6234 1935.9921 1158.8125 1936.563L1188.6945 2027.7666C1188.813 2028.1326 1188.9315 2028.4992 1189.0302 2028.8753 1189.513 2030.7095 1189.1305 2031.385 1187.2559 2032.0183 1186.9078 2032.1351 1186.6365 2032.3886 1186.3732 2032.632 1186.2647 2032.7306 1186.1578 2032.831 1186.0475 2032.9174L1185.7677 2033.1371 1186.0333 2033.3724C1186.1215 2033.4529 1186.2102 2033.5534 1186.299 2033.6536 1186.5441 2033.9334 1186.7975 2034.2211 1187.1397 2034.227 1188.6698 2034.2592 1190.2025 2034.2733 1191.7355 2034.2733 1193.2138 2034.2733 1194.6937 2034.2592 1196.1743 2034.231 1196.5139 2034.2254 1196.7656 2033.9417 1197.0108 2033.6679 1197.0972 2033.5697 1197.1837 2033.4711 1197.2708 2033.3945L1197.5094 2033.1856 1197.2846 2032.9603C1197.1998 2032.8772 1197.1176 2032.7726 1197.0371 2032.6683 1196.8118 2032.3845 1196.5783 2032.091 1196.2409 2032.0407 1193.4729 2031.6369 1191.8178 2030.0071 1190.7014 2026.5902 1179.0317 1990.8417 1167.3303 1955.103 1155.6006 1919.3726 1155.3997 1918.7592 1155.0033 1918.2243 1154.6192 1917.7095 1154.4463 1917.4782 1154.2728 1917.2446 1154.12 1917.0077L1153.8607 1916.6054Z"/>
<path transform="matrix(1,0,0,-1,0,2592)" d="M1117.5874 1916.9813C1117.4647 1917.1483 1117.3235 1917.309 1117.1852 1917.4677 1116.8612 1917.8379 1116.5272 1918.2203 1116.3742 1918.6867 1113.0097 1928.9523 1109.675 1939.2256 1106.3405 1949.4998L1098.0856 1974.9059C1092.4702 1992.1834 1086.8528 2009.4583 1081.2614 2026.7409 1080.2095 2029.985 1078.53 2031.6203 1075.811 2032.0364 1075.4467 2032.0932 1075.2075 2032.4429 1074.9779 2032.7808 1074.894 2032.9058 1074.8092 2033.0325 1074.7205 2033.1329L1074.471 2033.4183 1074.8092 2033.5912C1074.9342 2033.6563 1075.0609 2033.7384 1075.185 2033.8189 1075.5034 2034.0238 1075.8308 2034.237 1076.207 2034.2453 1077.6712 2034.2733 1079.1377 2034.2813 1080.6018 2034.2813L1088.7897 2034.2871C1090.095 2034.2871 1091.4008 2034.2772 1092.7055 2034.2453 1093.1156 2034.2354 1093.4802 2034.0017 1093.8339 2033.7763 1093.9745 2033.6859 1094.1151 2033.5952 1094.2566 2033.5252L1094.6565 2033.322 1094.3128 2033.0325C1094.1959 2032.934 1094.0831 2032.821 1093.9706 2032.7085 1093.6913 2032.4288 1093.4014 2032.1376 1093.0236 2032.0109 1091.0923 2031.3609 1090.7484 2030.514 1091.4806 2028.2355 1093.5789 2021.7311 1095.692 2015.2327 1097.8062 2008.732L1103.5624 1991.0368C1109.912 1971.5193 1116.2616 1951.9998 1122.5631 1932.4664 1122.9052 1931.4063 1122.899 1929.9782 1122.5452 1928.7411 1121.586 1925.3883 1120.4212 1922.0377 1119.2968 1918.7977 1119.0917 1918.2144 1118.7677 1917.832 1118.4562 1917.4644 1118.3213 1917.3047 1118.1864 1917.1483 1118.0662 1916.983L1117.8283 1916.6574Z"/>
<path transform="matrix(1,0,0,-1,0,2592)" d="M1145.717 2003.8992C1145.6746 2004.0077 1145.6203 2004.118 1145.5642 2004.2308 1145.4154 2004.5302 1145.2606 2004.842 1145.2944 2005.1782 1145.3528 2005.717 1145.5322 2006.232 1145.7072 2006.729 1145.7072 2006.729 1151.2664 2023.5934 1152.686 2027.9319 1153.5653 2030.6192 1153.4403 2030.8904 1150.7777 2032.0892 1150.466 2032.2282 1150.289 2032.5399 1150.1178 2032.8392 1150.0554 2032.952 1149.9915 2033.0646 1149.9205 2033.1609L1149.7337 2033.4209 1150.0092 2033.5878C1150.1116 2033.6519 1150.216 2033.7301 1150.3189 2033.809 1150.5966 2034.0198 1150.882 2034.237 1151.226 2034.2551 1151.8836 2034.2894 1152.5414 2034.2976 1153.1994 2034.2976L1155.4557 2034.2854 1157.9193 2034.3036C1158.575 2034.3036 1159.2289 2034.2911 1159.8803 2034.2492 1160.2488 2034.227 1160.5465 2033.9597 1160.8319 2033.7022 1160.9406 2033.6034 1161.0468 2033.5071 1161.158 2033.4284L1161.4655 2033.2094 1161.1777 2032.962C1161.0731 2032.8738 1160.9745 2032.7653 1160.8742 2032.6567 1160.6126 2032.377 1160.3435 2032.0875 1159.979 2032.0209 1157.3765 2031.5322 1155.7412 2029.989 1154.8322 2027.1635 1153.201 2022.075 1151.5238 2017.0003 1149.8482 2011.9277L1147.8814 2005.9688C1147.8353 2005.8276 1147.7968 2005.6828 1147.7588 2005.5363 1147.6559 2005.1538 1147.5516 2004.758 1147.3163 2004.4281 1147.1148 2004.1461 1146.7848 2004.0137 1146.4651 2003.887 1146.3506 2003.8408 1146.2338 2003.794 1146.1294 2003.7421L1145.8358 2003.5911Z"/>
<path transform="matrix(1,0,0,-1,0,2592)" d="M889.3054 2000.6444C889.215 2000.7514 889.1124 2000.8517 889.0089 2000.9546 888.7473 2001.2136 888.4766 2001.4815 888.3621 2001.8373 887.4975 2004.5021 886.6854 2005.1176 884.0186 2005.1317 882.0283 2005.1422 880.0393 2005.1422 878.0491 2005.1422H875.8913C872.7866 2005.1422 869.6823 2005.1461 866.579 2005.1824 866.0721 2005.1881 865.6064 2005.4656 865.1568 2005.7329 864.9689 2005.8457 864.7821 2005.9583 864.5933 2006.047L863.9932 2006.3285 864.6038 2006.5881C864.7988 2006.6707 864.9927 2006.7749 865.1871 2006.8778 865.6483 2007.123 866.1266 2007.3764 866.6413 2007.3926 868.015 2007.4329 869.3895 2007.4428 870.7632 2007.4428L880.8647 2007.4249C882.0031 2007.4249 883.1429 2007.4266 884.2813 2007.4348 886.6485 2007.4528 887.5967 2008.1832 888.3417 2010.5663 888.4624 2010.9546 888.7516 2011.2582 889.0305 2011.5499 889.1456 2011.6704 889.2601 2011.7911 889.3599 2011.9161L889.6283 2012.2517 889.8474 2011.8815C889.9268 2011.747 890.0283 2011.612 890.1298 2011.4776 890.3874 2011.1338 890.653 2010.7777 890.6641 2010.3673 890.7381 2007.5958 890.7375 2004.8222 890.6613 2002.1233 890.6488 2001.7168 890.3594 2001.3789 890.0785 2001.049 889.971 2000.9223 889.8636 2000.7975 889.7771 2000.6688L889.5577 2000.3449Z"/>
<path transform="matrix(1,0,0,-1,0,2592)" stroke-width="1.0001" stroke-linecap="butt" stroke-miterlimit="10.000003" stroke-linejoin="miter" fill="none" stroke="#000000" d="M775.2464 2369.978V1912.3693"/>
<path transform="matrix(1,0,0,-1,0,2592)" d="M408.5348 1984.2232 399.6887 1984.21C396.525 1984.21 393.3626 1984.2232 390.2 1984.2721 389.4843 1984.2814 388.8241 1984.631 388.1877 1984.968 387.9238 1985.1076 387.661 1985.2465 387.3971 1985.3566L386.6428 1985.6744 387.2886 1986.173C387.5057 1986.3411 387.7129 1986.5357 387.9221 1986.7297 388.4253 1987.1929 388.9454 1987.6757 389.6028 1987.8829 392.9984 1988.9546 394.3001 1990.6292 394.4052 1994.0613 394.4299 1994.8062 394.4245 1995.5512 394.42 1996.2998L394.4169 2041.596C394.4151 2113.0655 394.4134 2184.531 394.4443 2255.9989V2256.3677C394.4526 2261.0799 394.4591 2265.149 388.5392 2265.8956 387.8427 2265.9832 387.0867 2267.1439 387.1641 2267.7867 387.2517 2268.493 388.1047 2269.2425 388.7529 2269.3934 389.3162 2269.524 389.8814 2269.5404 390.3123 2269.5404L391.6916 2269.5174 563.2189 2269.531C567.8206 2269.531 568.0471 2269.304 568.0522 2264.6715L568.0587 2261.9449C568.0698 2258.6363 568.0814 2255.3287 567.9958 2252.02 567.9794 2251.3553 567.618 2250.7574 567.2718 2250.1795 567.131 2249.9464 566.9898 2249.7147 566.8784 2249.4818L566.5788 2248.8529 565.5747 2249.9254C565.1875 2250.3448 564.8006 2250.7637 564.3913 2251.1593 563.7776 2251.755 563.1897 2252.399 562.6018 2253.0455 561.3355 2254.4376 560.0256 2255.8775 558.4759 2256.7176 551.9217 2260.2623 544.1037 2262.442 533.8738 2263.5755 522.3818 2264.8482 485.3426 2265.4984 476.8982 2265.62 467.805 2265.7513 458.708 2265.7889 449.6145 2265.7889 443.4922 2265.7889 437.3702 2265.7723 431.248 2265.755 425.2969 2265.7386 419.3444 2265.7222 413.3942 2265.7205 412.863 2265.7205 412.3335 2265.6849 411.6855 2265.641L410.9703 2265.598 410.9715 1996.2216C410.9715 1990.1436 410.9715 1990.1436 416.7927 1987.7207 417.293 1987.5132 417.5895 1987.0311 417.8744 1986.5612 417.9796 1986.3897 418.0864 1986.215 418.2015 1986.0625L418.5255 1985.6452 418.0771 1985.3666C417.9101 1985.2628 417.7466 1985.1333 417.5813 1985.0034 417.1425 1984.6602 416.6892 1984.3041 416.137 1984.2814 414.8691 1984.2232 413.598 1984.2072 412.327 1984.2072Z"/>
<path transform="matrix(1,0,0,-1,0,2592)" d="M462.8109 2117.7642C462.6652 2117.9356 462.4999 2118.098 462.3335 2118.2633 461.912 2118.6805 461.4763 2119.1114 461.2918 2119.6849 459.8994 2123.9757 458.5929 2124.9664 454.2985 2124.9893 451.0939 2125.0054 447.891 2125.0054 444.6865 2125.0054H441.2117C436.2131 2125.0054 431.2151 2125.012 426.2176 2125.0704 425.4015 2125.0797 424.652 2125.527 423.9286 2125.958 423.6256 2126.1387 423.3243 2126.3204 423.0213 2126.4627L422.0552 2126.9163 423.0377 2127.3338C423.3518 2127.4669 423.6642 2127.635 423.9771 2127.8 424.7203 2128.1956 425.4891 2128.6036 426.3182 2128.6295 428.5301 2128.694 430.7434 2128.7103 432.9556 2128.7103L449.2205 2128.6812C451.0536 2128.6812 452.8879 2128.6844 454.7211 2128.697 458.5329 2128.7264 460.0596 2129.902 461.2598 2133.7388 461.4542 2134.364 461.9188 2134.8533 462.369 2135.3228 462.5535 2135.517 462.738 2135.7108 462.8985 2135.9117L463.3305 2136.453 463.6837 2135.8568C463.8115 2135.6397 463.9751 2135.423 464.1386 2135.2059 464.5531 2134.6524 464.9805 2134.079 464.9987 2133.4185 465.1183 2128.956 465.1166 2124.4908 464.9933 2120.145 464.974 2119.4906 464.5074 2118.946 464.0562 2118.4149 463.883 2118.2113 463.7095 2118.0106 463.5706 2117.8033L463.2174 2117.2816Z"/>
<path transform="matrix(1,0,0,-1,0,2592)" d="M399.8061 2042.8143C399.8061 2042.8143 427.8694 2033.206 415.9281 2005.2846 415.9281 2005.2846 411.376 2018.4467 407.2589 2023.6238 407.2589 2023.6238 409.0683 2013.325 413.5958 2007.1891 413.5958 2007.1891 398.0069 2011.3067 400.3543 2023.7074 402.8122 2036.6597 399.8061 2042.8143 399.8061 2042.8143" fill="#cca323"/>
<path transform="matrix(1,0,0,-1,0,2592)" d="M313.0149 1980.5443C313.0149 1980.5443 345.8339 1974.6215 349.314 2008.7348 349.314 2008.7348 337.6675 1998.2514 330.7915 1995.404 330.7915 1995.404 338.1826 2004.5724 345.977 2008.1425 345.977 2008.1425 328.4206 2012.6353 323.9768 1999.1106 319.326 1984.9757 313.0149 1980.5443 313.0149 1980.5443" fill="#cca323"/>
<path transform="matrix(1,0,0,-1,0,2592)" d="M360.7299 1975.519C360.7299 1975.519 381.384 1986.6317 368.591 2006.9263 368.591 2006.9263 366.6895 1996.054 364.1363 1991.4793 364.1363 1991.4793 364.2508 1999.7595 367.0013 2005.138 367.0013 2005.138 355.388 1999.9247 358.7729 1990.5304 362.2975 1980.7166 360.7299 1975.519 360.7299 1975.519" fill="#cca323"/>
<path transform="matrix(1,0,0,-1,0,2592)" d="M353.5169 2029.3906C353.5169 2029.3906 354.4838 2011.0119 373.009 2013.066 373.009 2013.066 365.9924 2018.1365 363.6173 2021.5111 363.6173 2021.5111 369.4037 2018.5883 372.2822 2014.7941 372.2822 2014.7941 372.4586 2024.7826 364.733 2025.6216 356.652 2026.5004 353.5169 2029.3906 353.5169 2029.3906" fill="#cca323"/>
<path transform="matrix(1,0,0,-1,0,2592)" d="M343.5086 2125.407C343.5086 2125.407 319.8362 2114.8104 331.9271 2091.5042 331.9271 2091.5042 335.0392 2103.3072 338.2741 2108.1363 338.2741 2108.1363 337.3628 2099.0552 333.8308 2093.3409 333.8308 2093.3409 347.0547 2098.1666 344.2377 2108.7535 341.3024 2119.8172 343.5086 2125.407 343.5086 2125.407" fill="#cca323"/>
<path transform="matrix(1,0,0,-1,0,2592)" d="M360.445 2074.2889C360.445 2074.2889 345.3803 2067.5614 353.6237 2052.4822 353.6237 2052.4822 355.4096 2060.077 357.4003 2063.1793 357.4003 2063.1793 356.9817 2057.3226 354.8188 2053.6563 354.8188 2053.6563 363.2491 2056.7137 361.2319 2063.547 359.1298 2070.6954 360.445 2074.2889 360.445 2074.2889" fill="#cca323"/>
<path transform="matrix(1,0,0,-1,0,2592)" d="M315.1505 2073.7606C315.1505 2073.7606 320.0074 2057.997 335.9781 2064.3599 335.9781 2064.3599 328.6531 2067.0423 325.8173 2069.401 325.8173 2069.401 331.5725 2068.277 334.9511 2065.6798 334.9511 2065.6798 332.9393 2074.4229 325.9066 2073.247 318.5552 2072.0206 315.1505 2073.7606 315.1505 2073.7606" fill="#cca323"/>
<path transform="matrix(1,0,0,-1,0,2592)" d="M447.2144 1988.6029C447.2144 1988.6029 432.3864 1972.0752 416.7261 1988.4246 416.7261 1988.4246 427.0958 1987.7247 431.8526 1989.057 431.8526 1989.057 424.2586 1990.8048 418.7174 1989.4757 418.7174 1989.4757 426.1167 1999.0064 433.9369 1993.7846 442.112 1988.3225 447.2144 1988.6029 447.2144 1988.6029" fill="#cca323"/>
<path transform="matrix(1,0,0,-1,0,2592)" d="M364.3132 2036.7017C396.5176 2012.8269 439.5217 1988.1596 426.638 1932.1705L420.2167 1923.3333C420.2167 1923.3333 433.2532 1959.7055 408.5056 1994.2506 397.7762 2001.7498 375.8675 2013.6832 351.0323 2007.97 351.0323 2007.97 376.9393 2019.8174 403.6377 2000.435 399.6539 2005.0569 394.9313 2009.6049 389.3289 2013.9829 348.5347 2045.8587 329.6273 2060.7247 332.0921 2089.9063 332.0921 2089.9063 332.1068 2060.5758 364.3132 2036.7017" fill="#cca323"/>
<path transform="matrix(1,0,0,-1,0,2592)" d="M635.9182 2227.2857C635.9182 2227.2857 607.8543 2236.8934 619.7956 2264.815 619.7956 2264.815 624.3474 2251.6534 628.4645 2246.4764 628.4645 2246.4764 626.656 2256.7745 622.1279 2262.911 622.1279 2262.911 637.7168 2258.7935 635.3694 2246.3927 632.9115 2233.4403 635.9182 2227.2857 635.9182 2227.2857" fill="#cca323"/>
<path transform="matrix(1,0,0,-1,0,2592)" d="M722.7085 2289.556C722.7085 2289.556 689.8895 2295.4779 686.41 2261.3648 686.41 2261.3648 698.0559 2271.848 704.9322 2274.696 704.9322 2274.696 697.5411 2265.5277 689.7467 2261.957 689.7467 2261.957 707.3031 2257.464 711.7475 2270.9896 716.3974 2285.1248 722.7085 2289.556 722.7085 2289.556" fill="#cca323"/>
<path transform="matrix(1,0,0,-1,0,2592)" d="M674.9938 2294.581C674.9938 2294.581 654.3397 2283.4686 667.1327 2263.1737 667.1327 2263.1737 669.0342 2274.0455 671.5871 2278.6204 671.5871 2278.6204 671.4729 2270.3406 668.7224 2264.9615 668.7224 2264.9615 680.3357 2270.1749 676.9511 2279.569 673.4262 2289.3834 674.9938 2294.581 674.9938 2294.581" fill="#cca323"/>
<path transform="matrix(1,0,0,-1,0,2592)" d="M682.2068 2240.7095C682.2068 2240.7095 681.2399 2259.0877 662.7144 2257.0333 662.7144 2257.0333 669.7312 2251.963 672.1061 2248.5889 672.1061 2248.5889 666.32 2251.5118 663.4417 2255.306 663.4417 2255.306 663.2649 2245.3175 670.9904 2244.4779 679.0717 2243.5997 682.2068 2240.7095 682.2068 2240.7095" fill="#cca323"/>
<path transform="matrix(1,0,0,-1,0,2592)" d="M692.2151 2144.6929C692.2151 2144.6929 715.8872 2155.2899 703.7966 2178.5953 703.7966 2178.5953 700.6842 2166.793 697.4493 2161.9639 697.4493 2161.9639 698.3606 2171.0443 701.8929 2176.7589 701.8929 2176.7589 688.6689 2171.933 691.4857 2161.3468 694.4213 2150.2823 692.2151 2144.6929 692.2151 2144.6929" fill="#cca323"/>
<path transform="matrix(1,0,0,-1,0,2592)" d="M675.2792 2195.8114C675.2792 2195.8114 690.3439 2202.5389 682.0999 2217.6173 682.0999 2217.6173 680.3147 2210.0225 678.3236 2206.921 678.3236 2206.921 678.7417 2212.7774 680.9049 2216.443 680.9049 2216.443 672.4752 2213.3858 674.4915 2206.5523 676.5939 2199.404 675.2792 2195.8114 675.2792 2195.8114" fill="#cca323"/>
<path transform="matrix(1,0,0,-1,0,2592)" d="M720.5729 2196.339C720.5729 2196.339 715.7169 2212.1026 699.7462 2205.74 699.7462 2205.74 707.0706 2203.0572 709.9061 2200.699 709.9061 2200.699 704.1509 2201.823 700.7723 2204.4197 700.7723 2204.4197 702.7849 2195.677 709.8174 2196.8524 717.1682 2198.0789 720.5729 2196.339 720.5729 2196.339" fill="#cca323"/>
<path transform="matrix(1,0,0,-1,0,2592)" d="M588.5096 2281.4974C588.5096 2281.4974 603.3373 2298.0245 618.9973 2281.6749 618.9973 2281.6749 608.6279 2282.3753 603.8708 2281.0426 603.8708 2281.0426 611.4651 2279.2947 617.006 2280.6246 617.006 2280.6246 609.6073 2271.0933 601.7873 2276.315 593.6117 2281.7777 588.5096 2281.4974 588.5096 2281.4974" fill="#cca323"/>
<path transform="matrix(1,0,0,-1,0,2592)" d="M671.4102 2233.3983C639.2061 2257.2733 596.202 2281.94 609.086 2337.9298L615.5067 2346.7669C615.5067 2346.7669 602.4702 2310.3948 627.2186 2275.8489 637.9475 2268.3504 659.8559 2256.4168 684.6914 2262.1295 684.6914 2262.1295 658.7841 2250.282 632.0866 2269.665 636.0704 2265.0426 640.7923 2260.4947 646.3945 2256.1168 687.1895 2224.2413 706.0963 2209.375 703.6319 2180.1937 703.6319 2180.1937 703.6174 2209.5238 671.4102 2233.3983" fill="#cca323"/>
<path transform="matrix(1,0,0,-1,0,2592)" stroke-width="1.0001" stroke-linecap="round" stroke-miterlimit="10.000003" stroke-linejoin="miter" fill="none" stroke="#cca323" d="M731.3635 2136.6976C731.3635 2016.9601 634.2973 1919.8939 514.5593 1919.8939 394.8222 1919.8939 297.756 2016.9601 297.756 2136.6976 297.756 2256.4349 394.8222 2353.5013 514.5593 2353.5013 634.2973 2353.5013 731.3635 2256.4349 731.3635 2136.6976Z"/>
<path transform="matrix(1,0,0,-1,0,2592)" d="M384.2371 2259.1905C387.7569 2259.1905 391.2766 2259.1905 394.7964 2259.1905 401.4221 2259.1905 401.4332 2269.4884 394.7964 2269.4884 386.1128 2269.4884 377.4285 2269.4884 368.7449 2269.4884 362.1195 2269.4884 362.1081 2259.1905 368.7449 2259.1905 374.9842 2259.1905 381.2227 2259.1905 387.462 2259.1905 394.0877 2259.1905 394.0988 2269.4884 387.462 2269.4884 376.4543 2269.4884 365.4465 2269.4884 354.4393 2269.4884 354.4393 2266.0555 354.4393 2262.6234 354.4393 2259.1905 366.6572 2259.1905 378.8759 2259.1905 391.0938 2259.1905 397.7201 2259.1905 397.7311 2269.4884 391.0938 2269.4884 378.8759 2269.4884 366.6572 2269.4884 354.4393 2269.4884 347.813 2269.4884 347.802 2259.1905 354.4393 2259.1905 365.4465 2259.1905 376.4543 2259.1905 387.462 2259.1905 394.0877 2259.1905 394.0988 2269.4884 387.462 2269.4884 381.2227 2269.4884 374.9842 2269.4884 368.7449 2269.4884 362.1195 2269.4884 362.1081 2259.1905 368.7449 2259.1905 377.4285 2259.1905 386.1128 2259.1905 394.7964 2259.1905 401.4221 2259.1905 401.4332 2269.4884 394.7964 2269.4884 391.2766 2269.4884 387.7569 2269.4884 384.2371 2269.4884 377.6108 2269.4884 377.5997 2259.1905 384.2371 2259.1905"/>
<path transform="matrix(1,0,0,-1,0,2592)" d="M650.09 1387.1707C649.9755 1387.1707 649.8828 1387.184 649.798 1387.2127 649.6347 1387.2682 649.5069 1387.3847 649.3827 1387.4973 649.3348 1387.5407 649.2864 1387.5846 649.2368 1387.624L649.0857 1387.7422 649.243 1387.8527C649.2966 1387.8901 649.3487 1387.9358 649.4014 1387.9811 649.5372 1388.0993 649.6773 1388.221 649.8539 1388.2456 650.336 1388.3136 650.8227 1388.361 651.3086 1388.4083 652.0898 1388.484 652.8974 1388.5628 653.6676 1388.7306 658.4791 1389.7763 662.6035 1392.467 666.2775 1396.9566 670.5241 1402.1464 673.3502 1408.4408 674.9172 1416.2 677.3672 1428.3306 676.6393 1439.9861 672.7535 1450.8432 670.3245 1457.6312 666.8799 1462.7653 662.2214 1466.5385 658.4176 1469.6201 654.1115 1471.1825 649.4227 1471.1825L649.2932 1471.182C646.6363 1471.1664 643.9785 1471.1618 641.3221 1471.1618L629.4005 1471.1707C629.1969 1471.1707 628.9934 1471.1593 628.7579 1471.1465L628.5138 1471.1338V1388.7601C628.5138 1387.2476 628.4551 1387.1886 626.9326 1387.188L624.6797 1387.1852C623.8585 1387.1852 623.037 1387.1886 622.2166 1387.2036 622.0208 1387.2077 621.8461 1387.3147 621.6775 1387.419 621.6094 1387.4605 621.5414 1387.5025 621.4737 1387.5358L621.2792 1387.6303 621.4425 1387.7717C621.4978 1387.819 621.5502 1387.874 621.6029 1387.929 621.7347 1388.0662 621.8711 1388.2085 622.0528 1388.2653 623.2462 1388.6397 623.5724 1389.0796 623.5724 1390.3135 623.5758 1416.5847 623.5753 1442.8565 623.5724 1469.1277 623.5724 1470.4203 623.3474 1470.7083 621.968 1471.1806 621.7985 1471.2382 621.6809 1471.3838 621.5666 1471.5236 621.5224 1471.5789 621.4779 1471.6338 621.4303 1471.6814L621.3059 1471.8064 621.4547 1471.9014C621.5111 1471.9378 621.5661 1471.9788 621.6214 1472.0199 621.762 1472.1239 621.9071 1472.2316 622.0817 1472.2785 622.1789 1472.3045 622.2866 1472.3169 622.4199 1472.3169 622.4961 1472.3169 622.7972 1472.3012 622.8686 1472.3012H623.0897C625.5794 1472.3012 628.0685 1472.2911 630.5573 1472.2824 633.0461 1472.2725 635.5349 1472.2628 638.024 1472.2628 641.8973 1472.2628 645.0795 1472.2866 648.0374 1472.3374L648.6049 1472.3419C657.3926 1472.3419 664.6898 1468.9213 670.9144 1461.884 676.4859 1455.586 680.0649 1447.7417 681.5531 1438.5695 683.3925 1427.2316 681.8593 1416.4968 676.997 1406.6629 673.2635 1399.1111 668.2711 1393.7374 661.7333 1390.2338 658.1906 1388.3355 654.4123 1387.3134 650.503 1387.1948L650.3306 1387.1837C650.2499 1387.1769 650.1688 1387.1707 650.09 1387.1707"/>
<path transform="matrix(1,0,0,-1,0,2592)" d="M824.7762 1386.5733C819.0006 1386.652 813.6575 1389.1544 809.3245 1393.809 803.3139 1400.2671 800.6182 1408.321 801.3121 1417.7472 801.8906 1425.594 804.9005 1432.1867 810.2597 1437.342 814.4759 1441.3989 819.9105 1443.6332 825.5636 1443.6332 831.7511 1443.6332 837.5372 1441.027 841.8569 1436.2957 847.6855 1429.9107 850.3563 1422 849.7928 1412.783 849.4075 1406.4738 847.2614 1400.7186 843.4151 1395.678 839.0134 1389.9085 832.2205 1386.5896 824.7779 1386.5733ZM825.5889 1442.524V1442.524C822.7202 1442.524 819.902 1441.5979 817.439 1439.8464 814.301 1437.6132 811.8624 1434.4282 810.1911 1430.3801 806.4643 1421.3529 806.1506 1411.8744 809.2596 1402.2057 810.6644 1397.8392 812.8933 1394.2721 815.8844 1391.6027 818.839 1388.9667 822.0214 1387.6303 825.3454 1387.6303 827.0138 1387.6303 828.7452 1387.9692 830.4908 1388.6375 834.0029 1389.9818 836.8784 1392.618 839.2819 1396.6972 842.2974 1401.8125 843.8066 1407.7814 843.8953 1414.944L843.8964 1415.0676 843.9041 1415.0687C843.8933 1415.903 843.4037 1421.6289 842.7832 1424.5226 841.5505 1430.2698 839.1229 1434.8242 835.3613 1438.4472 832.6318 1441.0763 829.1616 1442.524 825.5889 1442.524"/>
<path transform="matrix(1,0,0,-1,0,2592)" d="M714.666 1386.5706C708.7116 1386.5706 703.3938 1388.9993 698.8595 1393.7888 692.852 1400.135 690.1418 1408.1848 690.8029 1417.7157 691.2386 1424.0025 693.3487 1429.6079 697.0762 1434.3766 701.642 1440.218 707.3997 1443.3217 714.1898 1443.6017 714.5181 1443.6154 714.8449 1443.6218 715.1683 1443.6218 721.3209 1443.6218 726.7391 1441.1823 731.2723 1436.3711 736.4642 1430.8626 739.1262 1424.1087 739.4074 1415.7235 739.4238 1415.2636 739.3533 1414.987 739.1727 1414.8007 738.9947 1414.616 738.7194 1414.5338 738.2798 1414.5338 733.5408 1414.5466 728.8135 1414.549 724.0861 1414.552 719.6686 1414.5542 715.2514 1414.5568 710.835 1414.5673 710.5915 1414.5676 710.3684 1414.7033 710.1522 1414.8344 710.0612 1414.8899 709.9705 1414.9451 709.8795 1414.9885L709.5849 1415.1277 709.8874 1415.2493C709.9829 1415.2876 710.0796 1415.3372 710.1751 1415.3865 710.3996 1415.5016 710.6304 1415.6203 710.8775 1415.6209 716.1732 1415.6354 721.4698 1415.638 726.7643 1415.638L734.6296 1415.6375C734.5281 1416.4237 734.4411 1417.199 734.3555 1417.9657 734.1542 1419.7603 733.964 1421.456 733.6086 1423.1387 732.4299 1428.7139 730.1466 1433.2935 726.6308 1437.1387 723.4676 1440.5973 719.346 1442.5027 715.0243 1442.5027 710.7318 1442.5027 706.6372 1440.6174 703.4953 1437.1948 699.2016 1432.5186 696.706 1426.7365 695.8655 1419.5183 695.1997 1413.7929 695.7737 1408.2506 697.5717 1403.045 698.955 1399.0385 700.9291 1395.7183 703.6055 1392.8958 706.8574 1389.4662 710.9425 1387.6535 715.4195 1387.6535 717.5392 1387.6535 719.7094 1388.0639 721.8697 1388.874 727.6521 1391.0414 731.992 1395.1106 735.1359 1401.3145 735.1911 1401.4213 735.2365 1401.5333 735.2827 1401.6453 735.3697 1401.8584 735.4607 1402.0784 735.6056 1402.2643 735.7428 1402.4407 735.9378 1402.5573 736.1271 1402.6708 736.2034 1402.7162 736.2797 1402.7625 736.3514 1402.8117L736.5685 1402.9622 736.5745 1402.698C736.5773 1402.6148 736.5892 1402.5266 736.6017 1402.4381 736.6306 1402.2179 736.6615 1401.9902 736.564 1401.8034 736.3939 1401.4815 736.2275 1401.158 736.0605 1400.8344 735.4732 1399.6928 734.8654 1398.5121 734.1381 1397.4334 730.2917 1391.7234 725.3101 1388.2283 719.3324 1387.0443 717.747 1386.7302 716.1769 1386.5706 714.666 1386.5706"/>
<path transform="matrix(1,0,0,-1,0,2592)" d="M771.476 1386.578C765.4706 1386.578 760.091 1389.0475 755.4861 1393.9172 750.2168 1399.4912 747.576 1406.4296 747.4147 1415.1298 747.5587 1423.3654 750.1799 1430.3684 755.204 1435.9479 759.4744 1440.6902 764.8067 1443.2808 771.0528 1443.6486L771.192 1443.6618C771.2702 1443.6707 771.3485 1443.6785 771.4239 1443.6785 771.5217 1443.6785 771.6027 1443.6652 771.6742 1443.6366 771.8374 1443.5717 771.969 1443.4569 772.0965 1443.3463 772.1467 1443.3024 772.1969 1443.258 772.249 1443.2188L772.3947 1443.1062 772.249 1442.993C772.1977 1442.9526 772.1467 1442.9032 772.0954 1442.8545 771.963 1442.7265 771.8247 1442.5938 771.6472 1442.5668 771.3204 1442.516 770.9902 1442.4926 770.6597 1442.4694 770.3014 1442.4443 769.9428 1442.4191 769.5901 1442.3576 765.4348 1441.6387 762.0299 1439.3493 759.1796 1435.36 756.2137 1431.2078 754.433 1426.2106 753.7363 1420.0818 753.1424 1414.8609 753.4613 1409.7824 754.685 1404.9867 755.9345 1400.0899 757.9219 1396.1648 760.7602 1392.9866 763.9265 1389.4421 767.7108 1387.6447 772.0075 1387.6447 773.5689 1387.6447 775.2237 1387.8828 776.9279 1388.3516 783.4263 1390.1417 788.2903 1394.3256 791.797 1401.143 791.8551 1401.2566 791.9065 1401.3751 791.9575 1401.4937 792.057 1401.7252 792.1607 1401.9636 792.3172 1402.1691 792.4516 1402.347 792.6486 1402.4636 792.8388 1402.5759 792.9162 1402.6221 792.9944 1402.668 793.0667 1402.7182L793.2841 1402.868 793.29 1402.6045C793.2929 1402.5217 793.3054 1402.4328 793.3173 1402.3446 793.3479 1402.1212 793.3799 1401.8908 793.2753 1401.7094 792.9672 1401.1812 792.6695 1400.6455 792.3713 1400.11 791.5643 1398.6618 790.7298 1397.1648 789.719 1395.8297 786.0951 1391.0471 781.5107 1388.0889 776.0914 1387.0369 774.5224 1386.7328 772.9699 1386.578 771.476 1386.578"/>
<path transform="matrix(1,0,0,-1,0,2592)" d="M863.7092 1387.188C862.4242 1387.188 861.1393 1387.194 859.8555 1387.2064 859.661 1387.209 859.496 1387.3385 859.3356 1387.4638 859.2729 1387.5131 859.21 1387.5625 859.1474 1387.6013L858.9733 1387.7079 859.1335 1387.8346C859.1856 1387.8754 859.2361 1387.9234 859.2866 1387.9706 859.4121 1388.088 859.5414 1388.2094 859.7075 1388.2626 860.9406 1388.6558 861.2977 1389.1283 861.2989 1390.3685 861.3028 1406.4208 861.3028 1422.4723 861.2977 1438.524 861.2969 1439.5136 861.1183 1439.6893 860.6169 1439.6893 860.4292 1439.6893 860.2013 1439.6598 859.9238 1439.6085L859.8186 1439.5995C859.6806 1439.5995 859.5445 1439.6434 859.413 1439.6865 859.3472 1439.7077 859.2817 1439.7288 859.2177 1439.7435L859.0243 1439.7868 859.127 1439.9566C859.1655 1440.0197 859.1984 1440.0924 859.2324 1440.1647 859.318 1440.3512 859.407 1440.5437 859.5799 1440.6338 861.0883 1441.4255 862.6107 1442.1932 864.1324 1442.9608L865.1151 1443.456C865.3249 1443.5623 865.4978 1443.6139 865.6435 1443.6139 865.779 1443.6139 865.891 1443.5695 865.9777 1443.4826 866.1574 1443.3018 866.181 1442.9679 866.179 1442.6657 866.1722 1440.9646 866.175 1439.2633 866.1781 1437.5619L866.179 1436.5407C866.179 1436.4816 866.1866 1436.4232 866.1963 1436.3456 866.2898 1436.4116 866.3607 1436.4607 866.4222 1436.5193 870.6243 1440.5667 875.8868 1442.8483 882.5088 1443.4946 883.2308 1443.5646 883.9678 1443.587 884.681 1443.6085 885.0569 1443.6198 885.4325 1443.6312 885.8083 1443.6497L885.9078 1443.6519C886.2219 1443.6519 886.449 1443.5742 886.6035 1443.4143 886.7619 1443.2509 886.8334 1443.0121 886.8217 1442.6853 886.8112 1442.3562 886.8132 1442.0254 886.8161 1441.6957 886.8192 1441.3338 886.8217 1440.9723 886.8064 1440.6115 886.7891 1440.1607 886.591 1439.8917 886.2778 1439.8917 886.1505 1439.8917 886.0093 1439.9393 885.8585 1440.0343 884.046 1441.167 882.1826 1441.7184 880.1609 1441.7184 878.0414 1441.7184 875.793 1441.1188 873.085 1439.8328 870.546 1438.626 868.3971 1437.063 866.6977 1435.1865 866.4049 1434.8639 866.2003 1434.3639 866.1991 1433.9707 866.1711 1419.4585 866.175 1404.9459 866.179 1390.4331 866.179 1389.1005 866.4823 1388.6932 867.8001 1388.2567 867.9662 1388.2017 868.0861 1388.0687 868.2021 1387.9403 868.2483 1387.889 868.2948 1387.838 868.343 1387.7932L868.4833 1387.6668 868.3228 1387.5673C868.2667 1387.5319 868.2106 1387.4876 868.1547 1387.4431 868.0088 1387.3272 867.8571 1387.2077 867.6785 1387.206 866.3556 1387.1942 865.0321 1387.188 863.7092 1387.188"/>
<path transform="matrix(1,0,0,-1,0,2592)" d="M790.6603 1425.8699C790.2669 1425.8699 790.185 1426.337 790.1289 1426.8572 789.8071 1429.8742 788.6639 1432.6631 786.6369 1435.3829 784.8845 1437.7357 782.5793 1439.5802 779.7852 1440.8654L779.6208 1440.9354C779.4615 1440.9989 779.298 1441.0653 779.1656 1441.1835 779.0219 1441.3139 778.902 1441.5973 778.9618 1441.796 779.0034 1441.9429 779.1562 1442.0265 779.2778 1442.0938 779.3147 1442.1141 779.3493 1442.1328 779.3762 1442.1515L779.4391 1442.1967C779.4391 1442.1967 779.927 1442.0053 780.0219 1441.9644 785.9577 1439.401 790.3086 1434.9529 793.3246 1428.366 793.4542 1428.0834 793.2881 1427.5512 793.0698 1427.3595 792.6735 1427.0122 792.2234 1426.7239 791.7868 1426.4447L791.4368 1426.2188C791.117 1426.0097 790.863 1425.8699 790.6603 1425.8699"/>
<path transform="matrix(1,0,0,-1,0,2592)" d="M779.4581 1442.0357C779.675 1441.9494 779.8218 1441.8955 779.9658 1441.8334 786.2219 1439.1312 790.4075 1434.3956 793.1951 1428.3065 793.292 1428.0949 793.1619 1427.6296 792.9763 1427.4666 792.4844 1427.0357 791.909 1426.699 791.3582 1426.3379 790.5523 1425.809 790.376 1425.8815 790.2703 1426.8722 789.9282 1430.0807 788.6599 1432.9071 786.7514 1435.468 784.9327 1437.9089 782.6051 1439.725 779.8448 1440.9953 779.6458 1441.0868 779.4179 1441.1486 779.262 1441.2896 779.1494 1441.391 779.0587 1441.6226 779.0978 1441.7553 779.1352 1441.8836 779.3515 1441.9594 779.4581 1442.0357"/>
<path transform="matrix(1,0,0,-1,0,2592)" d="M630.1928 1478.1906C629.7452 1478.1906 629.2976 1478.1926 628.85 1478.1963 628.7978 1478.1969 628.7567 1478.2365 628.7176 1478.2752 628.7031 1478.2887 628.689 1478.3029 628.6745 1478.3139L628.6354 1478.3438 628.6689 1478.3805C628.6808 1478.3939 628.6924 1478.4092 628.7034 1478.4242 628.7321 1478.463 628.7647 1478.507 628.812 1478.5252 629.3134 1478.7156 629.3486 1478.7653 629.3486 1479.2865L629.3492 1504.8698 629.3231 1504.8947 629.0952 1504.9009C628.6479 1504.9074 628.2003 1504.9142 627.7535 1504.9142 626.2534 1504.9142 624.6448 1504.847 623.0443 1504.3598 622.6787 1504.2487 622.4034 1504.1316 622.1778 1503.991 622.0573 1503.9163 621.9655 1503.795 621.868 1503.6668 621.8209 1503.6049 621.7739 1503.5431 621.7234 1503.4865 621.6936 1503.4533 621.6599 1503.4235 621.6253 1503.3943L621.544 1503.3217 621.5142 1503.3615C621.5034 1503.3759 621.4893 1503.3906 621.4754 1503.4052 621.4368 1503.445 621.3977 1503.4859 621.3966 1503.5386 621.3889 1503.9822 621.3832 1504.5072 621.3986 1505.0398 621.4011 1505.1314 621.5264 1505.2232 621.6049 1505.2598 621.635 1505.2737 621.6695 1505.2802 621.7146 1505.2802 621.7396 1505.2802 621.7656 1505.2782 621.7914 1505.2763 621.815 1505.2742 621.8385 1505.2723 621.8609 1505.2723L638.3889 1505.2725C638.869 1505.2725 638.8877 1505.2533 638.8877 1504.7606L638.8886 1504.4644C638.89 1504.1826 638.8914 1503.9009 638.8821 1503.6192 638.8795 1503.5513 638.8381 1503.4918 638.7985 1503.434 638.782 1503.4105 638.7661 1503.3875 638.7531 1503.364L638.7208 1503.3047 638.6292 1503.42C638.5961 1503.4629 638.5637 1503.5064 638.5255 1503.5437 638.4725 1503.5961 638.4214 1503.6524 638.3701 1503.7084 638.2517 1503.8385 638.1295 1503.9729 637.9849 1504.0518 637.2907 1504.4287 636.5296 1504.5733 635.6784 1504.7105 634.5686 1504.8893 633.443 1504.9137 632.3913 1504.9137 632.1365 1504.9137 630.9873 1504.908 630.9873 1504.908 630.976 1504.908 630.9609 1504.9035 630.9383 1504.8972L630.9145 1504.8908 630.9147 1479.2916C630.9147 1478.7763 630.9692 1478.6978 631.4457 1478.5271 631.4939 1478.5101 631.529 1478.472 631.5627 1478.435 631.5758 1478.4202 631.5891 1478.406 631.6027 1478.3936L631.6438 1478.356 631.5987 1478.3233C631.5817 1478.3112 631.565 1478.2955 631.5483 1478.2802 631.5035 1478.2388 631.4573 1478.1963 631.4003 1478.1957 630.9978 1478.1923 630.595 1478.1906 630.1928 1478.1906"/>
<path transform="matrix(1,0,0,-1,0,2592)" d="M641.1112 1478.1869C640.9738 1478.1869 640.8357 1478.1886 640.6985 1478.1946 640.6367 1478.1978 640.5837 1478.2365 640.5327 1478.2745 640.5126 1478.2893 640.4924 1478.3043 640.472 1478.3162L640.4159 1478.3494 640.4664 1478.3908C640.4831 1478.4038 640.499 1478.4197 640.5146 1478.435 640.554 1478.4729 640.5945 1478.5126 640.6478 1478.5296 641.0557 1478.6603 641.1492 1478.7853 641.1492 1479.1978 641.1498 1487.4072 641.1498 1495.617 641.1489 1503.8263 641.1489 1504.1537 641.1056 1504.2033 640.957 1504.2033 640.9026 1504.2033 640.8306 1504.1945 640.7249 1504.1755L640.6911 1504.1724C640.6464 1504.1724 640.6024 1504.1867 640.5602 1504.2 640.5392 1504.2067 640.5177 1504.2135 640.497 1504.218L640.4352 1504.2319 640.4681 1504.2858C640.4803 1504.3056 640.4905 1504.3289 640.5009 1504.3516 640.5282 1504.4105 640.5559 1504.4717 640.6109 1504.5001 641.0404 1504.724 641.4729 1504.942 641.9061 1505.16L642.4002 1505.4094C642.4546 1505.4369 642.5011 1505.4506 642.5425 1505.4506 642.6147 1505.4506 642.704 1505.4089 642.7174 1505.2127 642.7219 1505.1478 642.7208 1505.0827 642.7202 1505.0171L642.7199 1489.3506C642.7205 1486.0276 642.7208 1482.7042 642.7157 1479.3809 642.7148 1478.9373 642.7548 1478.592 643.2693 1478.5209 643.3206 1478.5138 643.3458 1478.4594 643.3727 1478.4015 643.3818 1478.3825 643.3903 1478.3635 643.3999 1478.3479L643.4269 1478.3043 643.3798 1478.2833C643.3594 1478.2742 643.3398 1478.2626 643.32 1478.2516 643.2698 1478.2232 643.2182 1478.194 643.1607 1478.1932 642.8673 1478.1892 642.5742 1478.1881 642.2811 1478.1881Z"/>
<path transform="matrix(1,0,0,-1,0,2592)" d="M664.2425 1477.9882C662.3493 1477.9882 660.6499 1478.7765 659.1917 1480.331 657.2923 1482.3567 656.4436 1484.9127 656.6695 1487.9279 656.8569 1490.4264 657.8184 1492.523 659.5274 1494.1593 660.867 1495.4417 662.5905 1496.1481 664.3797 1496.1481 666.3526 1496.1481 668.2008 1495.3147 669.5841 1493.801 671.2084 1492.0237 672.0415 1489.8886 672.1299 1487.2737 672.1336 1487.1674 672.1277 1487.049 672.0557 1486.9746 671.9998 1486.9171 671.9111 1486.8901 671.7759 1486.8901 670.0762 1486.8952 668.3797 1486.8961 666.6829 1486.8961L663.044 1486.8955 662.9477 1486.8925C662.9219 1486.8925 662.8836 1486.894 662.8484 1486.909 662.7954 1486.9318 662.7183 1487.0025 662.718 1487.071 662.7169 1487.1345 662.7969 1487.2133 662.8595 1487.228 662.9156 1487.2409 662.9737 1487.2426 663.0182 1487.2426L663.1379 1487.2411 670.5958 1487.2415C670.572 1487.4508 670.551 1487.6572 670.5306 1487.8607 670.4827 1488.3392 670.4371 1488.7913 670.3577 1489.2426 670.0156 1491.1821 669.2661 1492.7638 668.0676 1494.0785 667.0621 1495.1815 665.7497 1495.789 664.3729 1495.789 662.9876 1495.789 661.6715 1495.175 660.6663 1494.0604 659.3168 1492.5643 658.5344 1490.7294 658.2745 1488.4512 658.0661 1486.6286 658.2495 1484.875 658.819 1483.2398 659.4157 1481.5261 660.2916 1480.2514 661.4963 1479.3432 662.3881 1478.6712 663.3768 1478.3305 664.4356 1478.3305 665.1006 1478.3305 665.8104 1478.4647 666.5445 1478.73 668.3856 1479.3948 669.7715 1480.6959 670.7815 1482.7073 670.8008 1482.7459 670.8183 1482.7857 670.8362 1482.8253 670.8711 1482.9046 670.9079 1482.9866 670.9578 1483.06 670.9898 1483.1065 671.0465 1483.126 671.1012 1483.1444 671.1219 1483.1515 671.1423 1483.1586 671.1608 1483.1668L671.2138 1483.1918 671.2245 1483.134C671.2282 1483.1135 671.2347 1483.092 671.2415 1483.0702 671.2594 1483.0121 671.2775 1482.9517 671.2537 1482.8998 671.1114 1482.594 670.9663 1482.2804 670.794 1481.9873 669.5816 1479.9226 668.0174 1478.6858 666.0113 1478.2056 665.409 1478.0614 664.8137 1477.9882 664.2425 1477.9882"/>
<path transform="matrix(1,0,0,-1,0,2592)" d="M653.0102 1478.0418C652.8217 1478.0418 652.6278 1478.0792 652.4345 1478.1543 651.8795 1478.368 651.5444 1478.8009 651.4662 1479.4053 651.4486 1479.5405 651.4498 1479.6788 651.4503 1479.8123 651.4503 1479.8123 651.4498 1486.6495 651.4503 1490.0289 651.4503 1491.4276 651.1575 1492.5938 650.5557 1493.5932 649.8091 1494.8325 648.8677 1495.5344 647.678 1495.7396 647.4348 1495.7816 647.1859 1495.8026 646.9387 1495.8026 646.2048 1495.8026 645.4644 1495.6237 644.6744 1495.256 644.6574 1495.2478 644.6409 1495.2382 644.6242 1495.2283 644.5854 1495.2047 644.5449 1495.1806 644.4975 1495.1764 644.4768 1495.1744 644.4556 1495.1735 644.4343 1495.1735 644.3858 1495.1735 644.3371 1495.1779 644.2883 1495.1823L644.1199 1495.1937 644.1715 1495.2614C644.1874 1495.283 644.2021 1495.3071 644.2174 1495.331 644.2534 1495.3904 644.2911 1495.4517 644.3512 1495.4832 645.1994 1495.9273 646.0886 1496.1526 646.9946 1496.1526 647.0535 1496.1526 647.1122 1496.1519 647.1717 1496.1498 649.0049 1496.0914 650.5129 1495.3663 651.6524 1493.9946 652.5184 1492.9529 652.9671 1491.7689 652.9873 1490.4751 653.0071 1489.1769 653.0026 1487.8568 652.9983 1486.5803 652.9963 1486.0437 652.9946 1485.5071 652.9944 1484.9708L653.0017 1484.9252 653.002 1479.2863C653.0023 1478.8494 653.1471 1478.628 653.432 1478.628 653.5485 1478.628 653.6897 1478.6635 653.8521 1478.7337 653.8708 1478.7417 653.8912 1478.7456 653.9153 1478.7456 653.9499 1478.7456 653.9856 1478.737 654.0199 1478.7295 654.0418 1478.7244 654.0633 1478.719 654.084 1478.7167L654.1435 1478.71 654.1206 1478.6544C654.1121 1478.6342 654.1055 1478.6124 654.099 1478.5903 654.0826 1478.5333 654.0656 1478.4749 654.0208 1478.4378 653.7073 1478.175 653.3671 1478.0418 653.0102 1478.0418"/>
<path transform="matrix(1,0,0,-1,0,2592)" d="M715.3055 1286.7905C708.6688 1286.8807 703.2767 1289.2516 698.8209 1294.0398 692.8106 1300.4966 690.1138 1308.5507 690.8068 1317.9773 691.3834 1325.8228 694.3941 1332.4157 699.7533 1337.5718 703.9698 1341.6299 709.4052 1343.8655 715.0584 1343.8655 721.2455 1343.8655 727.0311 1341.2597 731.3508 1336.5286 737.1802 1330.1442 739.8507 1322.2344 739.2875 1313.0169 738.8912 1306.535 736.7397 1300.7837 732.8914 1295.9237 728.2145 1290.0186 722.2997 1286.9453 715.3104 1286.7905H715.3084ZM715.0456 1342.762V1342.762C712.9346 1342.762 710.8843 1342.2725 708.9542 1341.3062 705.816 1339.736 703.2566 1337.1766 701.1281 1333.4834 698.2248 1328.4428 696.767 1322.6132 696.6703 1315.6597 696.7165 1310.7532 697.3254 1306.7033 698.5851 1302.9148 700.1484 1298.2124 702.3609 1294.5934 705.3503 1291.8504 708.1792 1289.2536 711.5153 1287.8804 714.9974 1287.8804 717.978 1287.8804 720.923 1288.9125 723.513 1290.865 726.4074 1293.0457 728.6278 1295.9992 730.3014 1299.8928 733.6327 1307.6453 734.2846 1316.0923 732.2386 1324.9976 730.9293 1330.7014 728.5003 1335.1904 724.8127 1338.7199 722.0891 1341.3267 718.6204 1342.762 715.0456 1342.762"/>
<path transform="matrix(1,0,0,-1,0,2592)" d="M627.7825 1287.4204 625.1434 1287.417C624.1995 1287.417 623.2561 1287.4204 622.3127 1287.435 622.099 1287.438 621.902 1287.5426 621.7123 1287.643 621.6335 1287.6843 621.5553 1287.726 621.4765 1287.7588L621.2511 1287.8535 621.4442 1288.002C621.5088 1288.0525 621.5706 1288.1104 621.633 1288.1685 621.7832 1288.3068 621.9383 1288.4505 622.1344 1288.5123 623.1472 1288.8323 623.5356 1289.3318 623.5671 1290.356 623.5744 1290.5779 623.573 1290.8 623.5716 1291.0236L623.5705 1304.5371C623.5699 1325.8593 623.5696 1347.1804 623.5787 1368.502V1368.6123C623.5812 1370.018 623.5832 1371.232 621.8169 1371.4546 621.6094 1371.4807 621.3835 1371.8272 621.4068 1372.019 621.4329 1372.2296 621.6877 1372.4533 621.8807 1372.498 622.0488 1372.5371 622.2175 1372.5422 622.3462 1372.5422L622.7575 1372.5354 665.6511 1372.5391C667.0236 1372.5391 667.0913 1372.4714 667.0928 1371.0895L667.0947 1370.2759C667.0981 1369.289 667.1013 1368.3023 667.0757 1367.3151 667.0712 1367.1167 666.9635 1366.9384 666.86 1366.7658 666.8178 1366.6963 666.7758 1366.6272 666.7427 1366.5578L666.6531 1366.3701 666.3538 1366.6901C666.2381 1366.8151 666.123 1366.9404 666.0006 1367.058 665.8174 1367.2359 665.6423 1367.4284 665.4668 1367.621 665.0889 1368.0363 664.6983 1368.466 664.2357 1368.7166 662.2804 1369.7739 659.948 1370.4242 656.896 1370.7625 653.4675 1371.1422 650.6972 1371.3364 648.1777 1371.3724 645.4647 1371.4118 642.7511 1371.4229 640.038 1371.4229 638.2114 1371.4229 636.3848 1371.4177 634.5584 1371.4126 632.7833 1371.4078 631.0077 1371.403 629.2321 1371.4024 629.0736 1371.4024 628.9157 1371.3917 628.7224 1371.3789L628.5093 1371.3656 628.5098 1291.0003C628.5098 1289.1867 628.5098 1289.1867 630.2463 1288.4641 630.3954 1288.4024 630.4842 1288.2583 630.5689 1288.1183 630.6004 1288.067 630.6321 1288.0148 630.6667 1287.9694L630.7631 1287.8447 630.6293 1287.7617C630.5797 1287.7308 630.5309 1287.6919 630.4816 1287.6537 630.3506 1287.5512 630.2154 1287.445 630.0505 1287.438 629.6723 1287.4204 629.293 1287.4158 628.9138 1287.4158Z"/>
<path transform="matrix(1,0,0,-1,0,2592)" d="M676.0647 1287.415C675.106 1287.415 674.1482 1287.419 673.1898 1287.4343 672.9758 1287.4371 672.7793 1287.5443 672.5894 1287.6486 672.512 1287.691 672.4344 1287.7348 672.3564 1287.7686L672.1308 1287.8668 672.3283 1288.0128C672.3944 1288.0621 672.4585 1288.1183 672.5228 1288.1744 672.6773 1288.3096 672.8372 1288.4494 673.0347 1288.5123 674.0345 1288.8272 674.4356 1289.346 674.4651 1290.3609 674.4699 1290.5172 674.4691 1290.6737 674.4685 1290.8302L674.4691 1367.7824C674.4705 1367.962 674.4722 1368.1417 674.4628 1368.3203 674.4214 1369.0624 674.1848 1369.2073 673.7896 1369.2073 673.6632 1369.2073 673.5189 1369.1906 673.3545 1369.1594 673.2955 1369.1486 673.2351 1369.1438 673.1745 1369.1438 673.0087 1369.1438 672.8414 1369.1798 672.6801 1369.2146 672.5869 1369.2343 672.4936 1369.2549 672.4012 1369.2675L672.1384 1369.3025 672.3133 1369.5021C672.3763 1369.5739 672.4344 1369.6532 672.4928 1369.7328 672.6317 1369.9234 672.7757 1370.1195 672.9826 1370.2277 674.4053 1370.9735 675.8427 1371.6918 677.2796 1372.4099L678.0234 1372.7819C678.4095 1372.9749 678.6904 1373.0944 678.9022 1373.0944 679.3991 1373.0944 679.3991 1372.4674 679.3997 1371.9138L679.4016 1291.0187C679.4016 1289.1762 679.4016 1289.1762 681.12 1288.4661 681.2688 1288.4043 681.3553 1288.2603 681.4395 1288.1211 681.4704 1288.0689 681.5004 1288.0169 681.535 1287.9723L681.6283 1287.8504 681.4987 1287.7665C681.4502 1287.7356 681.4029 1287.697 681.3553 1287.6582 681.2263 1287.5529 681.0931 1287.445 680.9287 1287.438 680.5349 1287.419 680.1398 1287.415 679.7441 1287.415Z"/>
<path transform="matrix(1,0,0,-1,0,2592)" d="M780.2671 1287.0883C780.2014 1287.1994 780.1282 1287.3076 780.0545 1287.4158 779.8915 1287.6557 779.7223 1287.9046 779.6305 1288.1837 777.6062 1294.3624 775.5939 1300.545 773.5822 1306.7263L771.9602 1311.71 771.7765 1312.2559 771.1526 1310.3493C770.3623 1307.937 769.6054 1305.6279 768.822 1303.3273 768.7185 1303.0288 768.4977 1302.7808 768.2839 1302.54 768.1893 1302.4346 768.0954 1302.3303 768.0124 1302.2212L767.7488 1301.8734 767.7575 1302.3102C767.7595 1302.4414 767.7516 1302.5758 767.7448 1302.7102 767.7275 1303.0155 767.7099 1303.3312 767.8037 1303.6232 768.2916 1305.1574 768.793 1306.6878 769.2934 1308.2182 769.8557 1309.9368 770.4193 1311.6549 770.963 1313.3784 771.0953 1313.7968 771.0973 1314.326 770.9689 1314.727 769.4325 1319.4989 767.8848 1324.2671 766.3371 1329.034 765.1729 1332.6182 764.0096 1336.2029 762.8511 1339.7893 762.3479 1341.3478 761.542 1342.1353 760.2367 1342.3399 760.0618 1342.367 759.9467 1342.5333 759.8358 1342.6926 759.7942 1342.7525 759.7536 1342.8125 759.71 1342.8607L759.5972 1342.9874 759.742 1343.076C759.7902 1343.107 759.8395 1343.1455 759.8891 1343.1845 760.0215 1343.2887 760.1584 1343.3958 760.3237 1343.397 761.6407 1343.4066 762.9585 1343.4114 764.2752 1343.4114 765.6925 1343.4114 767.109 1343.4058 768.5263 1343.395 768.6924 1343.394 768.8288 1343.279 768.9591 1343.1671 769.0085 1343.1243 769.0578 1343.0829 769.1068 1343.05L769.2384 1342.9622 769.1369 1342.8394C769.1003 1342.7952 769.0654 1342.7439 769.0306 1342.6926 768.941 1342.5574 768.846 1342.4174 768.6964 1342.3547 767.4559 1341.8366 767.3797 1341.6752 767.7816 1340.4328L782.2304 1295.9614C782.2777 1295.8163 782.3307 1295.6746 782.4033 1295.4801L782.411 1295.4591 782.4603 1295.6004C782.5774 1295.9314 782.6729 1296.2041 782.7639 1296.4782L797.118 1340.2896C797.1749 1340.4655 797.2319 1340.6417 797.2792 1340.8223 797.5111 1341.7033 797.3274 1342.0278 796.4269 1342.332 796.2599 1342.3881 796.1295 1342.51 796.0031 1342.6268 795.9509 1342.6741 795.8996 1342.7227 795.8466 1342.764L795.7123 1342.8694 795.8398 1342.9826C795.882 1343.0211 795.9249 1343.0693 795.9674 1343.1178 796.085 1343.2518 796.2069 1343.3903 796.3713 1343.393 797.1063 1343.4086 797.8425 1343.415 798.5789 1343.415 799.289 1343.415 799.9999 1343.4086 800.7111 1343.395 800.8744 1343.3922 800.9952 1343.2559 801.1128 1343.1243 801.1545 1343.0772 801.1959 1343.0299 801.2378 1342.993L801.3523 1342.8927 801.2443 1342.7844C801.2038 1342.7448 801.1644 1342.6946 801.1256 1342.6444 801.0173 1342.508 800.905 1342.367 800.7432 1342.3428 799.4134 1342.1486 798.6183 1341.366 798.0823 1339.7244 792.4765 1322.5521 786.8554 1305.3844 781.2207 1288.2206 781.1243 1287.9258 780.9338 1287.669 780.7493 1287.4215 780.6662 1287.3107 780.5829 1287.1984 780.5095 1287.0845L780.385 1286.8914Z"/>
<path transform="matrix(1,0,0,-1,0,2592)" d="M762.9605 1287.072C762.9015 1287.1522 762.8338 1287.2293 762.7671 1287.3056 762.6115 1287.4833 762.4511 1287.667 762.3777 1287.8912 760.7614 1292.8224 759.1595 1297.7575 757.5576 1302.6926L753.5925 1314.8972C750.8948 1323.1964 748.1965 1331.4949 745.5107 1339.797 745.0053 1341.3552 744.1985 1342.1409 742.8923 1342.3408 742.7174 1342.368 742.6023 1342.5361 742.4921 1342.6983 742.4518 1342.7583 742.4113 1342.8193 742.3685 1342.8676L742.2489 1343.0048 742.4113 1343.0877C742.4711 1343.1189 742.532 1343.1583 742.5918 1343.1972 742.7446 1343.2955 742.902 1343.3978 743.0825 1343.4019 743.7858 1343.415 744.4905 1343.4191 745.1938 1343.4191L749.1268 1343.4219C749.7541 1343.4219 750.3812 1343.4171 751.0079 1343.4019 751.2049 1343.397 751.3801 1343.2847 751.5499 1343.1764 751.6176 1343.133 751.6851 1343.0897 751.7531 1343.056L751.945 1342.9585 751.7801 1342.8193C751.7239 1342.7719 751.6698 1342.7178 751.6157 1342.6637 751.4816 1342.5293 751.3421 1342.3893 751.1607 1342.3286 750.2329 1342.0162 750.0679 1341.6094 750.4194 1340.5147 751.4274 1337.3904 752.4425 1334.2689 753.4582 1331.1459L756.2234 1322.6458C759.2734 1313.2702 762.3235 1303.8936 765.3506 1294.5104 765.5151 1294.001 765.5119 1293.3153 765.3419 1292.721 764.8812 1291.1102 764.3217 1289.5007 763.7817 1287.9445 763.683 1287.6642 763.5274 1287.4805 763.3777 1287.304 763.3128 1287.2273 763.2482 1287.1522 763.1904 1287.0729L763.0761 1286.9164Z"/>
<path transform="matrix(1,0,0,-1,0,2592)" d="M776.4732 1328.8246C776.4525 1328.8768 776.4265 1328.9298 776.3995 1328.9837 776.3281 1329.1277 776.2538 1329.2774 776.27 1329.4389 776.298 1329.6978 776.3842 1329.9452 776.4684 1330.1838 776.4684 1330.1838 779.1386 1338.285 779.8207 1340.369 780.243 1341.6599 780.1832 1341.7903 778.9039 1342.366 778.7543 1342.4329 778.6692 1342.5827 778.587 1342.7263 778.557 1342.7804 778.5264 1342.8346 778.4923 1342.8811L778.4025 1343.0059 778.5349 1343.086C778.5839 1343.117 778.6341 1343.1543 778.6837 1343.1923 778.8169 1343.2935 778.9541 1343.3978 779.1194 1343.4066 779.4351 1343.4231 779.7512 1343.427 780.0673 1343.427L781.1512 1343.4212 782.3347 1343.4299C782.6496 1343.4299 782.9637 1343.424 783.2767 1343.4038 783.4535 1343.393 783.5967 1343.2647 783.7339 1343.141 783.786 1343.0934 783.8371 1343.0473 783.8904 1343.0095L784.038 1342.9043 783.8997 1342.7853C783.8495 1342.743 783.8022 1342.6909 783.754 1342.6387 783.6284 1342.5043 783.4992 1342.3652 783.324 1342.3331 782.0739 1342.0984 781.2884 1341.3572 780.8516 1339.9999 780.0681 1337.5556 779.2625 1335.1178 778.4575 1332.6812L777.5127 1329.8187C777.4906 1329.7507 777.4722 1329.6813 777.4537 1329.611 777.4044 1329.4273 777.3542 1329.237 777.2411 1329.0786 777.1445 1328.9431 776.986 1328.8793 776.8324 1328.8187 776.7774 1328.7966 776.7213 1328.7739 776.6711 1328.7489L776.5299 1328.6764Z"/>
<path transform="matrix(1,0,0,-1,0,2592)" d="M653.3011 1327.261C653.2574 1327.3123 653.2081 1327.3605 653.1585 1327.4099 653.0329 1327.5346 652.9028 1327.6633 652.8478 1327.8339 652.4325 1329.1143 652.0425 1329.4097 650.7612 1329.4165 649.8054 1329.4216 648.8498 1329.4216 647.8937 1329.4216H646.8574C645.3658 1329.4216 643.8747 1329.4236 642.3837 1329.4409 642.1405 1329.4437 641.9166 1329.5769 641.7006 1329.7055 641.6104 1329.7595 641.5206 1329.8136 641.4301 1329.8562L641.1419 1329.9915 641.4352 1330.1161C641.5288 1330.1558 641.6218 1330.206 641.7153 1330.2553 641.9367 1330.3732 642.1666 1330.4948 642.4138 1330.5027 643.0737 1330.522 643.7339 1330.5269 644.3938 1330.5269L649.2464 1330.518C649.7932 1330.518 650.3406 1330.5189 650.8874 1330.523 652.0246 1330.5317 652.4802 1330.8823 652.8379 1332.0272 652.896 1332.2138 653.0349 1332.3594 653.169 1332.4998 653.2243 1332.5576 653.2792 1332.6157 653.3271 1332.6755L653.4561 1332.8368 653.5613 1332.659C653.5993 1332.5941 653.6483 1332.5296 653.6971 1332.4649 653.8207 1332.2999 653.9482 1332.1287 653.9536 1331.9317 653.9893 1330.6004 653.989 1329.268 653.9522 1327.9714 653.9462 1327.7761 653.8073 1327.614 653.6724 1327.4555 653.6208 1327.3947 653.5692 1327.3345 653.5276 1327.2727L653.4221 1327.117Z"/>
<path transform="matrix(1,0,0,-1,0,2592)" stroke-width="1.0001" stroke-linecap="butt" stroke-miterlimit="10.000003" stroke-linejoin="miter" fill="none" stroke="#000000" d="M598.5105 1504.6773V1284.8565"/>
<path transform="matrix(1,0,0,-1,0,2592)" d="M499.1074 1330.0258C498.9231 1330.0258 498.7738 1330.0473 498.6377 1330.0932 498.3746 1330.1828 498.1686 1330.3701 497.969 1330.5515 497.8919 1330.6212 497.8142 1330.6924 497.734 1330.755L497.4905 1330.9458 497.7439 1331.1238C497.8304 1331.1836 497.9146 1331.2576 497.9993 1331.3307 498.2176 1331.5204 498.4435 1331.7166 498.7273 1331.7562 499.5043 1331.8659 500.2877 1331.9423 501.0701 1332.0181 502.3278 1332.1406 503.6284 1332.2673 504.8683 1332.5372 512.6153 1334.2212 519.2563 1338.5537 525.1717 1345.7826 532.0097 1354.1389 536.5599 1364.274 539.0833 1376.7673 543.0283 1396.2991 541.8561 1415.0656 535.5992 1432.5474 531.6885 1443.4776 526.1417 1451.7442 518.6409 1457.8189 512.5164 1462.7809 505.5829 1465.2969 498.0334 1465.2969L497.825 1465.2964C493.547 1465.2706 489.2672 1465.2636 484.99 1465.2636L465.7941 1465.2777C465.4664 1465.2777 465.1393 1465.2595 464.7594 1465.2387L464.3666 1465.2184V1332.5848C464.3666 1330.1493 464.2719 1330.0543 461.821 1330.0534L458.1933 1330.049C456.8709 1330.049 455.5485 1330.0543 454.2267 1330.0784 453.9118 1330.0846 453.6303 1330.2573 453.3588 1330.4254 453.2494 1330.4923 453.1405 1330.56 453.0308 1330.6137L452.7181 1330.7653 452.9809 1330.993C453.0694 1331.0695 453.1544 1331.1581 453.2391 1331.2468 453.4515 1331.4677 453.6709 1331.696 453.9631 1331.788 455.8844 1332.3909 456.4103 1333.0996 456.4103 1335.086 456.4157 1377.3866 456.4148 1419.6878 456.4103 1461.9883 456.4103 1464.0698 456.0477 1464.5333 453.8273 1465.293 453.5541 1465.3865 453.3644 1465.6207 453.1808 1465.846 453.1093 1465.935 453.0379 1466.0236 452.9614 1466.1L452.7607 1466.3013 453.0005 1466.4544C453.0915 1466.5127 453.1799 1466.5789 453.2686 1466.6452 453.4951 1466.8121 453.729 1466.9859 454.0102 1467.0612 454.1664 1467.1032 454.3398 1467.1237 454.5544 1467.1237 454.6772 1467.1237 455.1619 1467.0978 455.2773 1467.0978H455.6333C459.6415 1467.0978 463.6494 1467.0822 467.657 1467.0675 471.6643 1467.0516 475.6717 1467.0363 479.6796 1467.0363 485.9167 1467.0363 491.04 1467.0746 495.8025 1467.1559L496.7164 1467.1638C510.8661 1467.1638 522.6157 1461.6558 532.6381 1450.3246 541.6089 1440.1843 547.3718 1427.554 549.7682 1412.7852 552.7293 1394.5294 550.2606 1377.2449 542.4318 1361.4109 536.4207 1349.252 528.3816 1340.5993 517.8555 1334.958 512.151 1331.9011 506.0667 1330.255 499.7727 1330.0642L499.4949 1330.0466C499.3651 1330.0359 499.2344 1330.0258 499.1074 1330.0258"/>
<path transform="matrix(1,0,0,-1,0,2592)" d="M422.3537 1319.3728 418.1046 1319.3666C416.5846 1319.3666 415.0655 1319.3728 413.5465 1319.3963 413.2026 1319.4009 412.8854 1319.5687 412.5798 1319.7305 412.4529 1319.7974 412.3267 1319.8643 412.2 1319.9174L411.8377 1320.0698 412.1478 1320.3095C412.2522 1320.3901 412.3517 1320.4834 412.452 1320.5769 412.6938 1320.7992 412.9438 1321.0313 413.2596 1321.1309 414.8906 1321.6456 415.516 1322.4501 415.5664 1324.0988 415.5783 1324.4564 415.5758 1324.8145 415.5735 1325.174L415.5721 1346.9329C415.5712 1381.2644 415.5704 1415.5944 415.5851 1449.9252V1450.1024C415.5891 1452.3659 415.5922 1454.3206 412.7485 1454.6792 412.414 1454.7214 412.0509 1455.279 412.088 1455.5877 412.1303 1455.927 412.5399 1456.287 412.8511 1456.3596 413.1218 1456.4223 413.3934 1456.4302 413.6003 1456.4302L414.2631 1456.4191 496.6591 1456.4257C498.8696 1456.4257 498.9784 1456.3165 498.981 1454.0913L498.9841 1452.7814C498.9895 1451.1923 498.9951 1449.6032 498.9538 1448.0142 498.9461 1447.6946 498.7723 1447.4075 498.606 1447.1298 498.5385 1447.0177 498.4707 1446.9066 498.4172 1446.7946L498.2732 1446.4926 497.7907 1447.0078C497.605 1447.2091 497.4191 1447.4107 497.2224 1447.6004 496.9276 1447.8866 496.6452 1448.196 496.3629 1448.5065 495.7546 1449.1752 495.1253 1449.8668 494.3809 1450.2705 491.2325 1451.9733 487.4769 1453.0202 482.5627 1453.565 477.0425 1454.1763 459.25 1454.4887 455.1936 1454.5468 450.8254 1454.61 446.4556 1454.6279 442.0874 1454.6279 439.1461 1454.6279 436.2055 1454.6203 433.2645 1454.6117 430.4058 1454.6038 427.5465 1454.5962 424.6883 1454.5953 424.4329 1454.5953 424.1786 1454.578 423.8674 1454.557L423.5238 1454.5363 423.5244 1325.1365C423.5244 1322.2168 423.5244 1322.2168 426.3208 1321.0529 426.5609 1320.9534 426.7035 1320.7216 426.8404 1320.4959 426.8908 1320.4135 426.9421 1320.3295 426.9974 1320.2564L427.153 1320.0559 426.9376 1319.9221C426.8574 1319.8723 426.7789 1319.8099 426.6995 1319.7476 426.4886 1319.5828 426.2709 1319.4116 426.0059 1319.4009 425.3967 1319.3728 424.7861 1319.3651 424.1755 1319.3651Z"/>
<path transform="matrix(1,0,0,-1,0,2592)" d="M448.4265 1383.5217C448.3562 1383.6043 448.2768 1383.6821 448.1969 1383.7615 447.9945 1383.9619 447.7853 1384.1688 447.6966 1384.4443 447.0279 1386.5054 446.4003 1386.9815 444.3372 1386.9924 442.798 1387.0001 441.2594 1387.0001 439.7202 1387.0001H438.0508C435.6496 1387.0001 433.2487 1387.0032 430.8483 1387.0313 430.456 1387.0358 430.096 1387.2506 429.7484 1387.4577 429.603 1387.5446 429.4582 1387.6316 429.3128 1387.7002L428.8487 1387.9182 429.3207 1388.1187C429.4715 1388.1828 429.6214 1388.2632 429.7717 1388.3427 430.1289 1388.5325 430.4982 1388.7286 430.8965 1388.7409 431.9589 1388.772 433.0222 1388.7799 434.0849 1388.7799L441.898 1388.7658C442.7785 1388.7658 443.6597 1388.7672 444.5402 1388.7734 446.3714 1388.7876 447.1047 1389.3523 447.6813 1391.1953 447.7748 1391.4959 447.9979 1391.7308 448.2142 1391.9562 448.3026 1392.0497 448.3913 1392.1427 448.4684 1392.2391L448.6759 1392.4993 448.8457 1392.2127C448.9072 1392.1084 448.9858 1392.0043 449.0643 1391.9 449.2633 1391.6342 449.4685 1391.3589 449.4773 1391.0414 449.5348 1388.898 449.534 1386.7529 449.4747 1384.6652 449.4654 1384.3508 449.2414 1384.0894 449.0246 1383.8344 448.9413 1383.7363 448.8579 1383.6399 448.7913 1383.5404L448.6215 1383.2898Z"/>
<path transform="matrix(1,0,0,-1,0,2592)" d="M418.161 1347.518C418.161 1347.518 431.6414 1342.9026 425.9052 1329.4899 425.9052 1329.4899 423.7186 1335.8126 421.7411 1338.2997 421.7411 1338.2997 422.6102 1333.3524 424.785 1330.4049 424.785 1330.4049 417.2964 1332.3827 418.4243 1338.3397 419.6049 1344.5617 418.161 1347.518 418.161 1347.518" fill="#cca323"/>
<path transform="matrix(1,0,0,-1,0,2592)" d="M376.469 1317.6057C376.469 1317.6057 392.2342 1314.7605 393.906 1331.1473 393.906 1331.1473 388.3116 1326.1116 385.0084 1324.7439 385.0084 1324.7439 388.5588 1329.1478 392.3031 1330.8627 392.3031 1330.8627 383.8694 1333.021 381.7346 1326.5243 379.5007 1319.7343 376.469 1317.6057 376.469 1317.6057" fill="#cca323"/>
<path transform="matrix(1,0,0,-1,0,2592)" d="M399.39 1315.1914C399.39 1315.1914 409.3115 1320.5299 403.166 1330.2785 403.166 1330.2785 402.2527 1325.056 401.0261 1322.8583 401.0261 1322.8583 401.0811 1326.8358 402.4023 1329.4196 402.4023 1329.4196 396.8237 1326.9152 398.4497 1322.4027 400.1428 1317.6884 399.39 1315.1914 399.39 1315.1914" fill="#cca323"/>
<path transform="matrix(1,0,0,-1,0,2592)" d="M395.9249 1341.0697C395.9249 1341.0697 396.3895 1332.2412 405.2886 1333.228 405.2886 1333.228 401.9179 1335.6638 400.7769 1337.2846 400.7769 1337.2846 403.5563 1335.8806 404.9393 1334.0582 404.9393 1334.0582 405.0241 1338.8562 401.313 1339.2592 397.4309 1339.6813 395.9249 1341.0697 395.9249 1341.0697" fill="#cca323"/>
<path transform="matrix(1,0,0,-1,0,2592)" d="M391.1173 1387.1931C391.1173 1387.1931 379.7459 1382.1029 385.5538 1370.9072 385.5538 1370.9072 387.0488 1376.5768 388.6027 1378.8967 388.6027 1378.8967 388.165 1374.5344 386.4685 1371.7894 386.4685 1371.7894 392.8207 1374.1076 391.4677 1379.1932 390.0574 1384.5078 391.1173 1387.1931 391.1173 1387.1931" fill="#cca323"/>
<path transform="matrix(1,0,0,-1,0,2592)" d="M399.253 1362.6375C399.253 1362.6375 392.0165 1359.4059 395.9762 1352.1624 395.9762 1352.1624 396.8342 1355.8106 397.7904 1357.3009 397.7904 1357.3009 397.5894 1354.4876 396.5505 1352.7265 396.5505 1352.7265 400.6001 1354.195 399.6309 1357.4776 398.6212 1360.9114 399.253 1362.6375 399.253 1362.6375" fill="#cca323"/>
<path transform="matrix(1,0,0,-1,0,2592)" d="M377.4949 1362.3837C377.4949 1362.3837 379.8281 1354.8112 387.4997 1357.8678 387.4997 1357.8678 383.9811 1359.1565 382.6191 1360.2896 382.6191 1360.2896 385.3837 1359.7498 387.0065 1358.502 387.0065 1358.502 386.0402 1362.702 382.6619 1362.1371 379.1305 1361.5479 377.4949 1362.3837 377.4949 1362.3837" fill="#cca323"/>
<path transform="matrix(1,0,0,-1,0,2592)" d="M440.9342 1321.4767C440.9342 1321.4767 433.8113 1313.5371 426.2888 1321.3911 426.2888 1321.3911 431.2701 1321.0549 433.5551 1321.6946 433.5551 1321.6946 429.9069 1322.5343 427.2452 1321.8959 427.2452 1321.8959 430.7995 1326.4741 434.5563 1323.9658 438.4834 1321.342 440.9342 1321.4767 440.9342 1321.4767" fill="#cca323"/>
<path transform="matrix(1,0,0,-1,0,2592)" d="M401.1111 1344.5819C416.5812 1333.1132 437.239 1321.2638 431.0501 1294.3684L427.9654 1290.1232C427.9654 1290.1232 434.2277 1307.5951 422.3398 1324.1897 417.1859 1327.792 406.6614 1333.5245 394.7315 1330.78 394.7315 1330.78 407.1764 1336.4711 420.0015 1327.1604 418.0876 1329.3805 415.8193 1331.5652 413.1281 1333.6685 393.5316 1348.9807 384.4491 1356.1217 385.6331 1370.1397 385.6331 1370.1397 385.6402 1356.05 401.1111 1344.5819" fill="#cca323"/>
<path transform="matrix(1,0,0,-1,0,2592)" d="M531.5817 1436.1325C531.5817 1436.1325 518.1007 1440.7478 523.8369 1454.1602 523.8369 1454.1602 526.0235 1447.8378 528.0012 1445.351 528.0012 1445.351 527.1324 1450.298 524.9571 1453.2457 524.9571 1453.2457 532.4457 1451.2677 531.318 1445.3107 530.1374 1439.0889 531.5817 1436.1325 531.5817 1436.1325" fill="#cca323"/>
<path transform="matrix(1,0,0,-1,0,2592)" d="M573.2731 1466.045C573.2731 1466.045 557.5079 1468.8899 555.8363 1452.5028 555.8363 1452.5028 561.4308 1457.5388 564.7337 1458.9069 564.7337 1458.9069 561.1833 1454.5026 557.439 1452.7874 557.439 1452.7874 565.8727 1450.6292 568.0077 1457.1261 570.2414 1463.9163 573.2731 1466.045 573.2731 1466.045" fill="#cca323"/>
<path transform="matrix(1,0,0,-1,0,2592)" d="M550.3524 1468.459C550.3524 1468.459 540.4309 1463.1209 546.5761 1453.372 546.5761 1453.372 547.4894 1458.5944 548.716 1460.7918 548.716 1460.7918 548.661 1456.8146 547.3397 1454.2305 547.3397 1454.2305 552.9183 1456.7349 551.2927 1461.2477 549.5992 1465.9622 550.3524 1468.459 550.3524 1468.459" fill="#cca323"/>
<path transform="matrix(1,0,0,-1,0,2592)" d="M553.8172 1442.5807C553.8172 1442.5807 553.3529 1451.4092 544.4538 1450.4221 544.4538 1450.4221 547.8245 1447.9866 548.9651 1446.3659 548.9651 1446.3659 546.1858 1447.7698 544.803 1449.5924 544.803 1449.5924 544.7183 1444.7942 548.4294 1444.3909 552.3111 1443.9691 553.8172 1442.5807 553.8172 1442.5807" fill="#cca323"/>
<path transform="matrix(1,0,0,-1,0,2592)" d="M558.6248 1396.4573C558.6248 1396.4573 569.9962 1401.5477 564.1883 1412.7432 564.1883 1412.7432 562.6933 1407.0736 561.1394 1404.7537 561.1394 1404.7537 561.577 1409.1157 563.2739 1411.8609 563.2739 1411.8609 556.9214 1409.5426 558.2747 1404.4572 559.6846 1399.1423 558.6248 1396.4573 558.6248 1396.4573" fill="#cca323"/>
<path transform="matrix(1,0,0,-1,0,2592)" d="M550.4893 1421.013C550.4893 1421.013 557.7262 1424.2448 553.7659 1431.4878 553.7659 1431.4878 552.9084 1427.8397 551.952 1426.3499 551.952 1426.3499 552.1527 1429.1631 553.1919 1430.924 553.1919 1430.924 549.1426 1429.4555 550.1112 1426.1726 551.1209 1422.739 550.4893 1421.013 550.4893 1421.013" fill="#cca323"/>
<path transform="matrix(1,0,0,-1,0,2592)" d="M572.2472 1421.2667C572.2472 1421.2667 569.9146 1428.8389 562.2426 1425.7826 562.2426 1425.7826 565.761 1424.4937 567.1233 1423.3609 567.1233 1423.3609 564.3587 1423.9009 562.7356 1425.1482 562.7356 1425.1482 563.7025 1420.9486 567.0805 1421.513 570.6116 1422.1023 572.2472 1421.2667 572.2472 1421.2667" fill="#cca323"/>
<path transform="matrix(1,0,0,-1,0,2592)" d="M508.8081 1462.174C508.8081 1462.174 515.9307 1470.113 523.4536 1462.2592 523.4536 1462.2592 518.4723 1462.5958 516.1873 1461.9555 516.1873 1461.9555 519.8352 1461.1159 522.4969 1461.7548 522.4969 1461.7548 518.9428 1457.1763 515.1864 1459.6843 511.259 1462.3087 508.8081 1462.174 508.8081 1462.174" fill="#cca323"/>
<path transform="matrix(1,0,0,-1,0,2592)" d="M548.6309 1439.0685C533.1611 1450.5375 512.5034 1462.3866 518.6923 1489.2824L521.7766 1493.5275C521.7766 1493.5275 515.5143 1476.0553 527.4028 1459.4607 532.5565 1455.8587 543.0807 1450.1259 555.0109 1452.8701 555.0109 1452.8701 542.5656 1447.179 529.7411 1456.4904 531.6548 1454.2697 533.9231 1452.085 536.6143 1449.9819 556.2108 1434.67 565.293 1427.5287 564.1092 1413.5108 564.1092 1413.5108 564.1021 1427.6001 548.6309 1439.0685" fill="#cca323"/>
<path transform="matrix(1,0,0,-1,0,2592)" stroke-width="1.0001" stroke-linecap="round" stroke-miterlimit="10.000003" stroke-linejoin="miter" fill="none" stroke="#cca323" d="M577.4306 1392.6166C577.4306 1335.0986 530.803 1288.4712 473.2846 1288.4712 415.7666 1288.4712 369.1392 1335.0986 369.1392 1392.6166 369.1392 1450.1347 415.7666 1496.7625 473.2846 1496.7625 530.803 1496.7625 577.4306 1450.1347 577.4306 1392.6166Z"/>
<path transform="matrix(1,0,0,-1,0,2592)" d="M410.682 1451.4585C412.3726 1451.4585 414.0635 1451.4585 415.7544 1451.4585 418.9371 1451.4585 418.9425 1456.4052 415.7544 1456.4052 411.5829 1456.4052 407.4114 1456.4052 403.24 1456.4052 400.0572 1456.4052 400.0518 1451.4585 403.24 1451.4585 406.2373 1451.4585 409.2341 1451.4585 412.2312 1451.4585 415.4139 1451.4585 415.4193 1456.4052 412.2312 1456.4052 406.9434 1456.4052 401.6557 1456.4052 396.3679 1456.4052 396.3679 1454.756 396.3679 1453.1074 396.3679 1451.4585 402.2371 1451.4585 408.1065 1451.4585 413.9759 1451.4585 417.1589 1451.4585 417.164 1456.4052 413.9759 1456.4052 408.1065 1456.4052 402.2371 1456.4052 396.3679 1456.4052 393.1849 1456.4052 393.1798 1451.4585 396.3679 1451.4585 401.6557 1451.4585 406.9434 1451.4585 412.2312 1451.4585 415.4139 1451.4585 415.4193 1456.4052 412.2312 1456.4052 409.2341 1456.4052 406.2373 1456.4052 403.24 1456.4052 400.0572 1456.4052 400.0518 1451.4585 403.24 1451.4585 407.4114 1451.4585 411.5829 1451.4585 415.7544 1451.4585 418.9371 1451.4585 418.9425 1456.4052 415.7544 1456.4052 414.0635 1456.4052 412.3726 1456.4052 410.682 1456.4052 407.499 1456.4052 407.4936 1451.4585 410.682 1451.4585"/>
<path transform="matrix(1,0,0,-1,0,2592)" stroke-width=".5" stroke-linecap="butt" stroke-miterlimit="2.6131259" stroke-linejoin="miter" fill="none" stroke="#130b04" d="M627.9812 1695.7562C793.9996 1695.7562 928.584 1561.1718 928.584 1395.1535 928.584 1229.135 793.9996 1094.5505 627.9812 1094.5505 461.9628 1094.5505 327.3783 1229.135 327.3783 1395.1535 327.3783 1561.1718 461.9628 1695.7562 627.9812 1695.7562Z"/>
</g>
</svg>
